<?xml version="1.0" encoding="UTF-8" standalone="no"?>
<!-- Created with Inkscape (http://www.inkscape.org/) -->

<svg
   width="473.224"
   height="106.99591"
   viewBox="0 0 125.20718 28.309335"
   version="1.1"
   id="svg8"
   sodipodi:docname="logo-text.svg"
   inkscape:export-filename="logo-banner-2.png"
   inkscape:export-xdpi="221.53848"
   inkscape:export-ydpi="221.53848"
   inkscape:version="1.2.2 (732a01da63, 2022-12-09)"
   xml:space="preserve"
   xmlns:inkscape="http://www.inkscape.org/namespaces/inkscape"
   xmlns:sodipodi="http://sodipodi.sourceforge.net/DTD/sodipodi-0.dtd"
   xmlns="http://www.w3.org/2000/svg"
   xmlns:svg="http://www.w3.org/2000/svg"
   xmlns:rdf="http://www.w3.org/1999/02/22-rdf-syntax-ns#"
   xmlns:cc="http://creativecommons.org/ns#"
   xmlns:dc="http://purl.org/dc/elements/1.1/"><defs
     id="defs2"><inkscape:path-effect
       effect="envelope"
       id="path-effect5262"
       is_visible="true"
       yy="true"
       xx="true"
       bendpath1="m 8.0958086,176.09199 c 23.7172444,-8.11455 95.8619814,17.37302 117.0155114,8"
       bendpath2="m 125.11132,184.09199 v 9.283"
       bendpath3="m 8.0958086,205.37499 c 30.2871354,-9.13632 86.1686004,-11.87899 117.0155114,-12"
       bendpath4="m 8.0958086,176.09199 v 29.283"
       bendpath1-nodetypes="cc"
       bendpath2-nodetypes="cc"
       bendpath3-nodetypes="cc"
       bendpath4-nodetypes="cc"
       lpeversion="0" /><inkscape:path-effect
       effect="envelope"
       id="path-effect5262-4"
       is_visible="true"
       yy="true"
       xx="true"
       bendpath1="m 8.0958086,176.09199 c 44.1784334,-11.97686 106.6735314,12.09078 117.0155114,8"
       bendpath2="m 125.11132,184.09199 v 9.283"
       bendpath3="m 8.0958086,205.37499 c 31.8487774,-10.61082 76.4292284,-11.60153 117.0155114,-12"
       bendpath4="m 8.0958086,176.09199 v 29.283"
       bendpath1-nodetypes="cc"
       bendpath2-nodetypes="cc"
       bendpath3-nodetypes="cc"
       bendpath4-nodetypes="cc"
       lpeversion="0" /><inkscape:path-effect
       effect="envelope"
       id="path-effect5262-6"
       is_visible="true"
       yy="true"
       xx="true"
       bendpath1="m 8.0958086,176.09199 c 31.1120454,-7.80221 106.6735314,12.09078 117.0155114,8"
       bendpath2="m 125.11132,184.09199 v 9.283"
       bendpath3="m 8.0958086,205.37499 c 41.3737774,-10.8754 92.8333914,-12.92445 117.0155114,-12"
       bendpath4="m 8.0958086,176.09199 v 29.283"
       bendpath1-nodetypes="cc"
       bendpath2-nodetypes="cc"
       bendpath3-nodetypes="cc"
       bendpath4-nodetypes="cc"
       lpeversion="0" /><inkscape:path-effect
       effect="envelope"
       id="path-effect5262-6-6-8"
       is_visible="true"
       yy="true"
       xx="true"
       bendpath1="m 8.0958086,176.09199 c 21.3834344,-6.49259 106.6735314,12.09078 117.0155114,8"
       bendpath2="m 125.11132,184.09199 v 9.283"
       bendpath3="M 8.0958086,203.37479 C 49.469586,192.49939 123.37984,192.82472 125.11132,193.37499"
       bendpath4="m 8.0958086,176.09199 v 27.2828"
       bendpath1-nodetypes="cc"
       bendpath2-nodetypes="cc"
       bendpath3-nodetypes="cc"
       bendpath4-nodetypes="cc"
       lpeversion="0" /><filter
       style="color-interpolation-filters:sRGB"
       inkscape:label="Drop Shadow"
       id="filter15305"
       x="-0.04358067"
       y="-0.03904264"
       width="1.0838244"
       height="1.0780853"><feFlood
         flood-opacity="1"
         flood-color="rgb(251,236,109)"
         result="flood"
         id="feFlood15295" /><feComposite
         in="SourceGraphic"
         in2="flood"
         operator="in"
         result="composite1"
         id="feComposite15297" /><feGaussianBlur
         in="composite1"
         stdDeviation="2"
         result="blur"
         id="feGaussianBlur15299" /><feOffset
         dx="0"
         dy="-2.77556e-17"
         result="offset"
         id="feOffset15301" /><feComposite
         in="SourceGraphic"
         in2="offset"
         operator="over"
         result="composite2"
         id="feComposite15303" /></filter></defs><sodipodi:namedview
     id="base"
     pagecolor="#ffffff"
     bordercolor="#666666"
     borderopacity="1.0"
     inkscape:pageopacity="0.0"
     inkscape:pageshadow="2"
     inkscape:zoom="1"
     inkscape:cx="211.5"
     inkscape:cy="47"
     inkscape:document-units="px"
     inkscape:current-layer="layer1"
     showgrid="false"
     units="px"
     inkscape:snap-page="true"
     inkscape:snap-global="false"
     inkscape:snap-bbox="true"
     inkscape:snap-smooth-nodes="true"
     inkscape:snap-bbox-midpoints="true"
     inkscape:snap-object-midpoints="true"
     inkscape:snap-center="true"
     inkscape:object-paths="true"
     inkscape:snap-nodes="true"
     inkscape:bbox-nodes="true"
     inkscape:window-width="1920"
     inkscape:window-height="1017"
     inkscape:window-x="-8"
     inkscape:window-y="-8"
     inkscape:window-maximized="1"
     inkscape:showpageshadow="2"
     inkscape:pagecheckerboard="0"
     inkscape:deskcolor="#d1d1d1" /><metadata
     id="metadata5"><rdf:RDF><cc:Work
         rdf:about=""><dc:format>image/svg+xml</dc:format><dc:type
           rdf:resource="http://purl.org/dc/dcmitype/StillImage" /></cc:Work></rdf:RDF></metadata><g
     inkscape:label="Layer 1"
     inkscape:groupmode="layer"
     id="layer1"
     transform="translate(-7.7695388,-215.16601)"><g
       id="g5475"
       transform="translate(5.6918827,-0.89556583)"><path
         sodipodi:type="star"
         style="fill:#fbec6d;fill-opacity:1;stroke:none;stroke-width:0.338011"
         id="path5437"
         sodipodi:sides="4"
         sodipodi:cx="381.13055"
         sodipodi:cy="67.882248"
         sodipodi:r1="32.534595"
         sodipodi:r2="17.243336"
         sodipodi:arg1="0.83151928"
         sodipodi:arg2="1.6169174"
         inkscape:flatsided="false"
         inkscape:rounded="0.22"
         inkscape:randomized="0"
         d="m 403.05086,91.923877 c -3.85552,3.515334 -17.50332,-6.576077 -22.71531,-6.81663 -5.21198,-0.240553 -19.73129,8.550837 -23.24663,4.69531 -3.51533,-3.855527 6.57608,-17.503323 6.81663,-22.715308 0.24056,-5.211986 -8.55083,-19.731296 -4.69531,-23.246631 3.85553,-3.515333 17.50333,6.576077 22.71531,6.816631 5.21199,0.240553 19.7313,-8.550838 23.24663,-4.69531 3.51534,3.855527 -6.57607,17.503322 -6.81663,22.715308 -0.24055,5.211986 8.55084,19.731296 4.69531,23.24663 z"
         transform="matrix(-0.0481182,0.06666376,-0.06666376,-0.0481182,47.021668,207.60959)" /><path
         sodipodi:nodetypes="cccccccccccccccccccccccccccccccccccsccccccccccccccccccccccccscscscccccccccscccccccccccccccccccccccccccccccccccczccccccccsccccccccccccccccccc"
         inkscape:connector-curvature="0"
         id="path5176-1-7-9-0-0"
         d="m 118.08649,192.29784 c 0.36398,0.34114 0.87023,0.59822 1.5109,0.79131 0.54386,0.15489 1.11492,0.23943 1.69998,0.25347 0.11019,0.003 0.22139,0.003 0.33361,4e-4 0.2314,-0.005 0.45309,-0.0185 0.66531,-0.0411 0.48902,-0.0513 0.93373,-0.15126 1.33643,-0.3088 m -0.37307,-4.14121 c -0.94828,-0.1953 -1.92033,-0.12435 -2.85531,-0.30486 -0.35783,-0.0701 -0.66086,-0.16641 -0.92016,-0.29403 m 0.18831,-3.67942 c 0.0728,-0.0293 0.14853,-0.0569 0.22718,-0.0829 0.39954,-0.12973 0.87448,-0.20721 1.41575,-0.24135 0.15851,-0.01 0.32373,-0.0163 0.49531,-0.019 m -12.08051,4.40145 c 0.719,0.006 1.43527,0.0103 2.15431,0.0136 1.26421,0.006 2.51641,0.007 3.77888,0.005 m 0.82317,4.73739 c -1.50398,0.0271 -3.06173,0.0529 -4.56572,0.075 -0.0753,10e-4 -2.05952,0.0289 -2.13483,0.03 -0.0917,-0.52575 -0.0818,-8.98102 0.074,-9.68491 0.70827,0.053 1.41465,0.10256 2.12326,0.14827 1.45074,0.0936 2.88509,0.16954 4.3371,0.22709 m -10.02083,9.35504 c -0.11567,-0.53041 -0.14229,-9.07938 0.0948,-10.01364 m -9.970529,-1.00566 c 1.273463,0.14446 2.544608,0.28309 3.818929,0.41578 1.27436,0.13269 2.54629,0.25886 3.82157,0.37857 m -3.82157,-0.37857 c -0.384743,1.35977 -0.286177,10.15044 -0.1386,10.68622 m -5.801572,0.0962 c -0.174981,-0.5537 -0.340683,-9.64185 0.186805,-11.42185 m -16.619482,11.97614 c -0.934558,0.0416 -1.896776,-0.0877 -2.729943,-0.47736 -0.853076,-0.40753 -1.504711,-1.03768 -1.956132,-2.03624 -0.437653,-0.9886 -0.629306,-2.26463 -0.614724,-3.78834 0.01461,-1.52666 0.234502,-3.00921 0.723119,-4.29431 0.503779,-1.29988 1.211438,-2.24799 2.11658,-2.87927 0.899076,-0.64058 1.869835,-0.85756 2.806926,-0.72741 0.945568,0.13132 1.686709,0.57541 2.320868,1.31134 0.310992,0.36091 0.58703,0.77599 0.833768,1.24457 0.257096,0.48826 0.486255,1.04239 0.683961,1.65294 0.398664,1.20318 0.625476,2.51765 0.61507,3.91215 -0.01041,1.39444 -0.25699,2.52838 -0.698764,3.45574 -0.219181,0.46998 -0.473068,0.86169 -0.757622,1.18657 -0.272749,0.31138 -0.576723,0.56503 -0.914812,0.77263 -0.680629,0.41792 -1.484526,0.62501 -2.428295,0.66699 z m -7.712762,0.33971 c -0.235503,-0.76601 -0.533375,-11.90635 0.39469,-15.46857 M 65.550466,192.966 c 0.04904,0.0958 0.09891,0.1903 0.149522,0.28293 0.52059,0.95287 1.109304,1.57841 1.109304,1.57841 m -7.295326,-2.39129 c -0.08313,-2.86013 -0.09,-7.23175 0.141622,-10.6832 m 4.331677,-3.44509 c 0.996235,0.24691 1.659088,0.92826 2.124931,2.00273 0.515989,1.16661 0.771251,2.79833 0.738293,4.69905 -0.02263,1.30523 -0.184616,2.35145 -0.517485,3.21784 m -4.754205,2.55224 c -0.624893,0.0157 -1.249367,0.0325 -1.873879,0.0503 m -3.191978,-11.20793 c -0.06984,0.60756 -0.124563,1.24026 -0.167534,1.88212 -0.192324,2.87279 -0.14926,5.92908 -0.173069,7.73665 -0.03317,2.5185 -0.407384,4.18308 -0.982798,5.21491 -0.58251,1.04455 -1.409182,1.5812 -2.62832,1.71411 -1.205919,0.13147 -2.313578,-0.2027 -3.065208,-1.22814 -0.7671,-1.0602 -1.056605,-2.73532 -1.020892,-5.50936 0.03727,-2.8947 -0.09314,-8.97888 0.664716,-12.82195 m -2.920608,18.16712 c -0.377233,0.77143 -0.825555,1.3545 -1.366153,1.77979 -0.385739,0.30786 -0.806195,0.5276 -1.269344,0.66108 -0.176771,0.0509 -0.360031,0.0893 -0.549577,0.11484 -0.934833,0.12582 -1.870184,-0.0764 -2.691936,-0.70162 -0.823054,-0.63434 -1.44317,-1.60731 -1.869771,-3.05505 -0.412852,-1.43246 -0.587044,-3.228 -0.574007,-5.3596 0.01308,-2.13853 0.213217,-4.23532 0.683676,-6.14334 0.485228,-1.93051 1.176381,-3.46116 2.074868,-4.58305 0.90086,-1.11284 1.876265,-1.62668 2.82188,-1.55286 0.190942,0.0149 0.373363,0.0528 0.547541,0.11332 0.464976,0.16151 0.867587,0.48214 1.226994,0.95306 0.496832,0.62194 0.881294,1.51504 1.203911,2.64186 m -16.974794,17.06381 c 0.3703,0.75873 0.897163,1.31934 1.571565,1.70439 0.67962,0.36469 1.389022,0.47375 2.088869,0.36346 0.159413,-0.0251 0.31231,-0.0587 0.458591,-0.10037 0.548586,-0.15646 1.00482,-0.42802 1.379097,-0.81514 0.473806,-0.49006 0.81377,-1.10425 1.035237,-1.86498 0.230642,-0.7621 0.357559,-1.61476 0.368574,-2.57609 0.01349,-1.1775 -0.114718,-2.13706 -0.406362,-2.86201 -0.451518,-1.43711 -1.294491,-1.91911 -2.499464,-2.10042 h -1e-6 c -0.138319,-0.0208 -0.281268,-0.0377 -0.428883,-0.0518 -1.428829,-0.13684 -2.266589,-0.72662 -2.802569,-2.20253 -0.288957,-0.87074 -0.447378,-2.09202 -0.43643,-3.65082 0.0089,-1.27309 0.157792,-2.46549 0.46178,-3.56784 0.305327,-1.12861 0.762398,-2.0349 1.347529,-2.69933 0.594435,-0.66425 1.289992,-0.98017 2.054953,-0.94668 0.100811,0.004 0.200041,0.0171 0.297726,0.0379 v 0 c 0.421517,0.0898 0.811052,0.3307 1.180639,0.71607 0.455015,0.47443 0.827415,1.09691 1.137184,1.85402 m -8.879054,1.94088 c 0.08916,0.79394 0.130542,1.67328 0.126319,2.62016 -0.0068,1.52202 -0.137578,2.73328 -0.424493,3.73169 -0.02083,0.0748 -0.04228,0.14806 -0.06436,0.21966 m 0.230156,3.3086 c 0.08006,0.16698 0.153623,0.34674 0.220643,0.53898 0.354025,0.98881 0.507664,2.23146 0.484175,3.73073 -0.02859,1.82462 -0.317108,3.2107 -0.852622,4.20539 -0.539246,1.00163 -1.361828,1.60835 -2.525851,1.809 -0.204935,0.0353 -1.438405,0.18763 -1.642556,0.22298 m -2.664504,-2.07193 c -0.0031,-1.63093 0.03226,-3.24728 0.05118,-9.50537 0.01892,-6.2581 0.07822,-12.17919 0.181348,-13.34195 0.93126,-0.0159 1.857796,-0.0254 2.786388,-0.0285 M 9.06083,181.15435 c 0.3821113,-1.45859 0.8535889,-2.68147 1.428948,-3.6568 0.75205,-1.30131 1.624201,-2.02981 2.575155,-2.09 0.957507,-0.0606 1.758659,0.5518 2.472295,1.81278 0.701795,1.24005 1.273711,3.00058 1.709757,5.09664 0.449112,2.11508 0.708425,4.40351 0.708513,6.86088 8.9e-5,2.46297 -0.26036,4.58217 -0.723458,6.50189 -0.447587,1.89145 -1.041756,3.43521 -1.750631,4.58413 -0.71658,1.16142 -1.52248,1.84979 -2.457174,2.01734 -0.93434,0.16749 -1.78983,-0.22667 -2.536192,-1.25364 -0.5373345,-0.75703 -0.9845014,-1.77259 -1.354307,-3.04061 m 75.020726,-5.15458 c 0.394077,0.3916 0.944373,0.66488 1.636117,0.85517 0.690934,0.18021 1.423333,0.24668 2.125857,0.22743 0.763234,-0.0209 1.385443,-0.12092 1.861636,-0.31501 0.480552,-0.19587 0.824674,-0.46518 1.045319,-0.84141 0.230004,-0.37652 0.350924,-0.82926 0.352311,-1.3708 0.0017,-0.66442 -0.138338,-1.23257 -0.441854,-1.67035 -0.528913,-0.96608 -1.537821,-1.25331 -3.009706,-1.40853 -1.464595,-0.15446 -2.322932,-0.55082 -2.865268,-1.45501 -0.29156,-0.53105 -0.442845,-1.25632 -0.41626,-2.13251 0.02164,-0.7131 0.185506,-1.34298 0.499549,-1.88144 0.315589,-0.55186 0.776381,-0.94315 1.357186,-1.19041 0.588862,-0.24566 1.277003,-0.3036 2.034771,-0.20445 0.530763,0.0694 1.02176,0.23413 1.483525,0.48865 0.462385,0.25484 0.849571,0.56722 1.173846,0.94353"
         style="font-style:normal;font-variant:normal;font-weight:300;font-stretch:normal;font-size:20.32px;line-height:1.25;font-family:Montserrat;-inkscape-font-specification:'Montserrat Light';letter-spacing:0px;word-spacing:0px;fill:none;fill-opacity:1;stroke:#fbec6d;stroke-width:1.32292;stroke-linecap:round;stroke-linejoin:round;stroke-miterlimit:4;stroke-dasharray:none;stroke-opacity:1"
         transform="translate(-0.28208363,41.3952)" /><path
         sodipodi:type="star"
         style="fill:#fbec6d;fill-opacity:1;stroke:none;stroke-width:0.333333"
         id="path3860"
         sodipodi:sides="4"
         sodipodi:cx="381.13055"
         sodipodi:cy="67.882248"
         sodipodi:r1="32.534595"
         sodipodi:r2="17.243336"
         sodipodi:arg1="0.83151928"
         sodipodi:arg2="1.6169174"
         inkscape:flatsided="false"
         inkscape:rounded="0.22"
         inkscape:randomized="0"
         d="m 403.05086,91.923877 c -3.85552,3.515334 -17.50332,-6.576077 -22.71531,-6.81663 -5.21198,-0.240553 -19.73129,8.550837 -23.24663,4.69531 -3.51533,-3.855527 6.57608,-17.503323 6.81663,-22.715308 0.24056,-5.211986 -8.55083,-19.731296 -4.69531,-23.246631 3.85553,-3.515333 17.50333,6.576077 22.71531,6.816631 5.21199,0.240553 19.7313,-8.550838 23.24663,-4.69531 3.51534,3.855527 -6.57607,17.503322 -6.81663,22.715308 -0.24055,5.211986 8.55084,19.731296 4.69531,23.24663 z"
         transform="matrix(-0.04020606,0.07303368,-0.07303368,-0.04020606,144.92341,201.12992)" /><path
         inkscape:transform-center-y="-9.0853749e-06"
         sodipodi:type="star"
         style="fill:#fbec6d;fill-opacity:1;stroke:none;stroke-width:0.465962"
         id="path5403"
         sodipodi:sides="4"
         sodipodi:cx="381.13055"
         sodipodi:cy="67.882248"
         sodipodi:r1="32.534595"
         sodipodi:r2="17.243336"
         sodipodi:arg1="0.83151928"
         sodipodi:arg2="1.6169174"
         inkscape:flatsided="false"
         inkscape:rounded="0.22"
         inkscape:randomized="0"
         d="m 403.05086,91.923877 c -3.85552,3.515334 -17.50332,-6.576077 -22.71531,-6.81663 -5.21198,-0.240553 -19.73129,8.550837 -23.24663,4.69531 -3.51533,-3.855527 6.57608,-17.503323 6.81663,-22.715308 0.24056,-5.211986 -8.55083,-19.731296 -4.69531,-23.246631 3.85553,-3.515333 17.50333,6.576077 22.71531,6.816631 5.21199,0.240553 19.7313,-8.550838 23.24663,-4.69531 3.51534,3.855527 -6.57607,17.503322 -6.81663,22.715308 -0.24055,5.211986 8.55084,19.731296 4.69531,23.24663 z"
         transform="matrix(0.04231509,0.04202752,-0.04202752,0.04231509,104.8074,208.88436)"
         inkscape:transform-center-x="-8.1111826e-06" /><path
         sodipodi:type="star"
         style="fill:#fbec6d;fill-opacity:1;stroke:none;stroke-width:0.452338"
         id="path5407"
         sodipodi:sides="4"
         sodipodi:cx="381.13055"
         sodipodi:cy="67.882248"
         sodipodi:r1="32.534595"
         sodipodi:r2="17.243336"
         sodipodi:arg1="0.83151928"
         sodipodi:arg2="1.6169174"
         inkscape:flatsided="false"
         inkscape:rounded="0.22"
         inkscape:randomized="0"
         d="m 403.05086,91.923877 c -3.85552,3.515334 -17.50332,-6.576077 -22.71531,-6.81663 -5.21198,-0.240553 -19.73129,8.550837 -23.24663,4.69531 -3.51533,-3.855527 6.57608,-17.503323 6.81663,-22.715308 0.24056,-5.211986 -8.55083,-19.731296 -4.69531,-23.246631 3.85553,-3.515333 17.50333,6.576077 22.71531,6.816631 5.21199,0.240553 19.7313,-8.550838 23.24663,-4.69531 3.51534,3.855527 -6.57607,17.503322 -6.81663,22.715308 -0.24055,5.211986 8.55084,19.731296 4.69531,23.24663 z"
         transform="matrix(-0.05436857,-0.02860803,0.02860803,-0.05436857,143.89073,246.85452)"
         inkscape:transform-center-x="-1.6807692e-05" /><path
         inkscape:transform-center-x="-2.2826208e-06"
         sodipodi:type="star"
         style="fill:#fbec6d;fill-opacity:1;stroke:none;stroke-width:0.442769"
         id="path5415"
         sodipodi:sides="4"
         sodipodi:cx="381.13055"
         sodipodi:cy="67.882248"
         sodipodi:r1="32.534595"
         sodipodi:r2="17.243336"
         sodipodi:arg1="0.83151928"
         sodipodi:arg2="1.6169174"
         inkscape:flatsided="false"
         inkscape:rounded="0.22"
         inkscape:randomized="0"
         d="m 403.05086,91.923877 c -3.85552,3.515334 -17.50332,-6.576077 -22.71531,-6.81663 -5.21198,-0.240553 -19.73129,8.550837 -23.24663,4.69531 -3.51533,-3.855527 6.57608,-17.503323 6.81663,-22.715308 0.24056,-5.211986 -8.55083,-19.731296 -4.69531,-23.246631 3.85553,-3.515333 17.50333,6.576077 22.71531,6.816631 5.21199,0.240553 19.7313,-8.550838 23.24663,-4.69531 3.51534,3.855527 -6.57607,17.503322 -6.81663,22.715308 -0.24055,5.211986 8.55084,19.731296 4.69531,23.24663 z"
         transform="matrix(-0.05180772,0.03542918,-0.03542918,-0.05180772,86.308632,221.76341)" /><path
         transform="matrix(-0.04020606,0.07303368,-0.07303368,-0.04020606,144.92341,201.12992)"
         d="m 403.05086,91.923877 c -3.85552,3.515334 -17.50332,-6.576077 -22.71531,-6.81663 -5.21198,-0.240553 -19.73129,8.550837 -23.24663,4.69531 -3.51533,-3.855527 6.57608,-17.503323 6.81663,-22.715308 0.24056,-5.211986 -8.55083,-19.731296 -4.69531,-23.246631 3.85553,-3.515333 17.50333,6.576077 22.71531,6.816631 5.21199,0.240553 19.7313,-8.550838 23.24663,-4.69531 3.51534,3.855527 -6.57607,17.503322 -6.81663,22.715308 -0.24055,5.211986 8.55084,19.731296 4.69531,23.24663 z"
         inkscape:randomized="0"
         inkscape:rounded="0.22"
         inkscape:flatsided="false"
         sodipodi:arg2="1.6169174"
         sodipodi:arg1="0.83151928"
         sodipodi:r2="17.243336"
         sodipodi:r1="32.534595"
         sodipodi:cy="67.882248"
         sodipodi:cx="381.13055"
         sodipodi:sides="4"
         id="path5417"
         style="fill:#fbec6d;fill-opacity:1;stroke:none;stroke-width:0.333333"
         sodipodi:type="star" /><path
         sodipodi:type="star"
         style="fill:#fbec6d;fill-opacity:1;stroke:none;stroke-width:0.333333"
         id="path5419"
         sodipodi:sides="4"
         sodipodi:cx="381.13055"
         sodipodi:cy="67.882248"
         sodipodi:r1="32.534595"
         sodipodi:r2="17.243336"
         sodipodi:arg1="0.83151928"
         sodipodi:arg2="1.6169174"
         inkscape:flatsided="false"
         inkscape:rounded="0.22"
         inkscape:randomized="0"
         d="m 403.05086,91.923877 c -3.85552,3.515334 -17.50332,-6.576077 -22.71531,-6.81663 -5.21198,-0.240553 -19.73129,8.550837 -23.24663,4.69531 -3.51533,-3.855527 6.57608,-17.503323 6.81663,-22.715308 0.24056,-5.211986 -8.55083,-19.731296 -4.69531,-23.246631 3.85553,-3.515333 17.50333,6.576077 22.71531,6.816631 5.21199,0.240553 19.7313,-8.550838 23.24663,-4.69531 3.51534,3.855527 -6.57607,17.503322 -6.81663,22.715308 -0.24055,5.211986 8.55084,19.731296 4.69531,23.24663 z"
         transform="matrix(0.06890725,0.04692799,-0.04692799,0.06890725,36.784073,196.63903)" /><path
         sodipodi:type="star"
         style="fill:#fbec6d;fill-opacity:1;stroke:none;stroke-width:0.530705"
         id="path5435"
         sodipodi:sides="4"
         sodipodi:cx="381.13055"
         sodipodi:cy="67.882248"
         sodipodi:r1="32.534595"
         sodipodi:r2="17.243336"
         sodipodi:arg1="0.83151928"
         sodipodi:arg2="1.6169174"
         inkscape:flatsided="false"
         inkscape:rounded="0.22"
         inkscape:randomized="0"
         d="m 403.05086,91.923877 c -3.85552,3.515334 -17.50332,-6.576077 -22.71531,-6.81663 -5.21198,-0.240553 -19.73129,8.550837 -23.24663,4.69531 -3.51533,-3.855527 6.57608,-17.503323 6.81663,-22.715308 0.24056,-5.211986 -8.55083,-19.731296 -4.69531,-23.246631 3.85553,-3.515333 17.50333,6.576077 22.71531,6.816631 5.21199,0.240553 19.7313,-8.550838 23.24663,-4.69531 3.51534,3.855527 -6.57607,17.503322 -6.81663,22.715308 -0.24055,5.211986 8.55084,19.731296 4.69531,23.24663 z"
         transform="matrix(0.03327166,-0.04043482,0.04043482,0.03327166,43.986492,249.9301)"
         inkscape:transform-center-y="1.1774925e-05"
         inkscape:transform-center-x="-1.0839944e-06" /><path
         transform="matrix(0.01190492,0.06548241,-0.06548241,0.01190492,19.984707,216.42609)"
         d="m 403.05086,91.923877 c -3.85552,3.515334 -17.50332,-6.576077 -22.71531,-6.81663 -5.21198,-0.240553 -19.73129,8.550837 -23.24663,4.69531 -3.51533,-3.855527 6.57608,-17.503323 6.81663,-22.715308 0.24056,-5.211986 -8.55083,-19.731296 -4.69531,-23.246631 3.85553,-3.515333 17.50333,6.576077 22.71531,6.816631 5.21199,0.240553 19.7313,-8.550838 23.24663,-4.69531 3.51534,3.855527 -6.57607,17.503322 -6.81663,22.715308 -0.24055,5.211986 8.55084,19.731296 4.69531,23.24663 z"
         inkscape:randomized="0"
         inkscape:rounded="0.22"
         inkscape:flatsided="false"
         sodipodi:arg2="1.6169174"
         sodipodi:arg1="0.83151928"
         sodipodi:r2="17.243336"
         sodipodi:r1="32.534595"
         sodipodi:cy="67.882248"
         sodipodi:cx="381.13055"
         sodipodi:sides="4"
         id="path5449"
         style="fill:#fbec6d;fill-opacity:1;stroke:none;stroke-width:0.417541"
         sodipodi:type="star" /><path
         sodipodi:type="star"
         style="fill:#fbec6d;fill-opacity:1;stroke:none;stroke-width:0.333333"
         id="path5453"
         sodipodi:sides="4"
         sodipodi:cx="381.13055"
         sodipodi:cy="67.882248"
         sodipodi:r1="32.534595"
         sodipodi:r2="17.243336"
         sodipodi:arg1="0.83151928"
         sodipodi:arg2="1.6169174"
         inkscape:flatsided="false"
         inkscape:rounded="0.22"
         inkscape:randomized="0"
         d="m 403.05086,91.923877 c -3.85552,3.515334 -17.50332,-6.576077 -22.71531,-6.81663 -5.21198,-0.240553 -19.73129,8.550837 -23.24663,4.69531 -3.51533,-3.855527 6.57608,-17.503323 6.81663,-22.715308 0.24056,-5.211986 -8.55083,-19.731296 -4.69531,-23.246631 3.85553,-3.515333 17.50333,6.576077 22.71531,6.816631 5.21199,0.240553 19.7313,-8.550838 23.24663,-4.69531 3.51534,3.855527 -6.57607,17.503322 -6.81663,22.715308 -0.24055,5.211986 8.55084,19.731296 4.69531,23.24663 z"
         transform="matrix(-0.04020606,0.07303368,-0.07303368,-0.04020606,144.92341,201.12992)" /><path
         transform="matrix(-0.0052918,0.06890151,-0.06890151,-0.0052918,32.440352,192.30023)"
         d="m 403.05086,91.923877 c -3.85552,3.515334 -17.50332,-6.576077 -22.71531,-6.81663 -5.21198,-0.240553 -19.73129,8.550837 -23.24663,4.69531 -3.51533,-3.855527 6.57608,-17.503323 6.81663,-22.715308 0.24056,-5.211986 -8.55083,-19.731296 -4.69531,-23.246631 3.85553,-3.515333 17.50333,6.576077 22.71531,6.816631 5.21199,0.240553 19.7313,-8.550838 23.24663,-4.69531 3.51534,3.855527 -6.57607,17.503322 -6.81663,22.715308 -0.24055,5.211986 8.55084,19.731296 4.69531,23.24663 z"
         inkscape:randomized="0"
         inkscape:rounded="0.22"
         inkscape:flatsided="false"
         sodipodi:arg2="1.6169174"
         sodipodi:arg1="0.83151928"
         sodipodi:r2="17.243336"
         sodipodi:r1="32.534595"
         sodipodi:cy="67.882248"
         sodipodi:cx="381.13055"
         sodipodi:sides="4"
         id="path5455"
         style="fill:#fbec6d;fill-opacity:1;stroke:none;stroke-width:0.402142"
         sodipodi:type="star" /><path
         sodipodi:type="star"
         style="fill:#fbec6d;fill-opacity:1;stroke:none;stroke-width:0.146783"
         id="path5457"
         sodipodi:sides="4"
         sodipodi:cx="381.13055"
         sodipodi:cy="67.882248"
         sodipodi:r1="32.534595"
         sodipodi:r2="17.243336"
         sodipodi:arg1="0.83151928"
         sodipodi:arg2="1.6169174"
         inkscape:flatsided="false"
         inkscape:rounded="0.22"
         inkscape:randomized="0"
         d="m 403.05086,91.923877 c -3.85552,3.515334 -17.50332,-6.576077 -22.71531,-6.81663 -5.21198,-0.240553 -19.73129,8.550837 -23.24663,4.69531 -3.51533,-3.855527 6.57608,-17.503323 6.81663,-22.715308 0.24056,-5.211986 -8.55083,-19.731296 -4.69531,-23.246631 3.85553,-3.515333 17.50333,6.576077 22.71531,6.816631 5.21199,0.240553 19.7313,-8.550838 23.24663,-4.69531 3.51534,3.855527 -6.57607,17.503322 -6.81663,22.715308 -0.24055,5.211986 8.55084,19.731296 4.69531,23.24663 z"
         transform="matrix(-0.12756238,0.13990049,-0.13990049,-0.12756238,66.351979,186.17464)"
         inkscape:transform-center-y="-4.7761117e-05" /></g></g></svg>
