<svg xmlns="http://www.w3.org/2000/svg" width="160" height="40" viewBox="0 0 160 40"><path fill="#a6a6a6" d="M150.68526.5943H7.27714c-.48514 0-1.26137 0-1.94057.19406-.6792.19405-1.26137.29108-1.84354.58217A6.20982 6.20982 0 0 0 .19406 5.93087L0 7.87144v24.25712c0 .6792 0 1.26137.19406 1.94057a6.40388 6.40388 0 0 0 1.74651 3.396c.48514.48514.97029.87326 1.55246 1.16434a6.50091 6.50091 0 0 0 1.94057.58217l1.94057.19406H152.5288c.67919 0 1.35839 0 1.94057-.19406a6.59794 6.59794 0 0 0 3.68708-1.74651 6.30685 6.30685 0 0 0 1.74651-3.396L160 32.12856V7.87144l-.097-1.94057a6.40388 6.40388 0 0 0-1.74651-3.396 6.20982 6.20982 0 0 0-1.64949-1.16434c-.58217-.29109-1.16434-.48514-1.84354-.58217a12.6137 12.6137 0 0 0-1.94057-.19406h-1.84354z" style="stroke-width:.970285"/><path d="M8.1504 38.53244a38.8114 38.8114 0 0 1-.87326 0l-1.74652-.09703a5.82171 5.82171 0 0 1-1.64948-.58217l-1.3584-.97028a5.14251 5.14251 0 0 1-.97028-1.3584c-.29109-.48514-.38812-.97029-.48515-1.64948-.19405-.58217-.19405-1.26137-.19405-1.74652V7.87144c0-.48515 0-1.16434.19405-1.74652a5.53062 5.53062 0 0 1 1.45543-2.91085 5.4336 5.4336 0 0 1 1.3584-1.16434c.48514-.29109.97029-.38812 1.64948-.48515.58218-.09702 1.26138-.09702 1.74652-.09702h145.34869c.48515 0 1.16435 0 1.84355.19405a5.82171 5.82171 0 0 1 1.55245.48515 5.33657 5.33657 0 0 1 1.3584.97028 5.4336 5.4336 0 0 1 .97029 1.3584c.29108.48514.48514.97028.58217 1.64948l.19405 1.84355v24.1601c0 .58216 0 1.16433-.19405 1.7465a5.53062 5.53062 0 0 1-.48515 1.64949 5.33657 5.33657 0 0 1-.97028 1.3584c-.48514.38811-.97029.77623-1.45543.97028a5.72468 5.72468 0 0 1-1.55245.58217l-1.84355.09704h-1.84354z" style="stroke-width:.970285"/><path fill="#1ed760" d="M87.13711 18.66663c.5181.31009 1.18941.13793 1.49751-.3843.30796-.5214.13759-1.19587-.38191-1.50596-4.33625-2.5883-11.19784-2.8316-15.32548-1.57175-.57782.1765-.9035.79008-.72852 1.37097.17498.5806.78559.90837 1.363.73228 3.59572-1.09737 9.80874-.89055 13.5754 1.35876zm-.12335 3.33153c.2633-.4302.12851-.99424-.29972-1.25943-3.60675-2.22883-8.88265-2.85601-13.1268-1.56109-.48085.14733-.75266.65806-.6074 1.14255.14623.4835.65512.7567 1.13694.61035 3.71517-1.13399 8.50366-.57177 11.64394 1.36928.42824.26463.9889.12951 1.25304-.30166zm-1.42983 3.1995c.21-.34517.10186-.79627-.24154-1.00715-3.08-1.8925-6.89829-2.33294-11.34952-1.30966-.3928.08994-.63754.48267-.54768.8768.08944.39399.48.64108.87197.55072 4.0675-.93433 7.52132-.55339 10.26545 1.133.34298.21103.79145.10243 1.00132-.24372zM80.225 8.25c6.45372 0 11.68524 5.26051 11.68524 11.74986 0 6.48977-5.23152 11.75014-11.68524 11.75014-6.45358 0-11.68538-5.26037-11.68538-11.75014 0-6.48935 5.2318-11.74986 11.68538-11.74986zm20.1063 10.84724c2.45808.6011 3.46051 1.53416 3.46051 3.22125 0 1.99619-1.5169 3.28606-3.86433 3.28606-1.65938 0-3.19694-.59295-4.44733-1.7153-.05343-.04742-.0593-.12936-.01297-.18422l1.10457-1.32186c.0226-.02736.0551-.04392.0906-.04686.0338-.002.0703.0087.097.0317 1.07458.93574 2.0353 1.33464 3.21284 1.33464 1.06034 0 1.71923-.46134 1.71923-1.20344 0-.66984-.32582-1.04433-2.25645-1.4915-2.26832-.55128-3.58094-1.26546-3.58094-3.28242 0-1.88085 1.52165-3.19542 3.70011-3.19542 1.4816 0 2.74915.44156 3.8748 1.34978.0546.04406.0656.1232.0251.18072l-.98513 1.39637c-.0208.02946-.0519.04883-.0872.05416-.0353.0056-.0712-.0029-.0998-.02441-.94592-.70913-1.84788-1.05359-2.75766-1.05359-.93853 0-1.56979.45348-1.56979 1.12767 0 .71334.3593 1.0529 2.37687 1.53668zm10.47545 2.2611c0-1.4017-.89275-2.41866-2.12221-2.41866-1.23533 0-2.16715 1.03941-2.16715 2.41866 0 1.3794.93182 2.41867 2.16715 2.41867 1.24955 0 2.12221-.9941 2.12221-2.41867zm-1.70402-4.26192c1.89058 0 3.80447 1.46386 3.80447 4.26192 0 2.7975-1.91389 4.26095-3.80447 4.26095-1.01723 0-1.85194-.3794-2.54027-1.15616v3.25969c0 .07338-.0592.13315-.13215.13315h-1.80645c-.073 0-.132-.05977-.132-.13315V17.3957c0-.07338.059-.13315.132-.13315h1.80645c.073 0 .13215.05977.13215.13315v.92942c.68819-.82573 1.52276-1.2287 2.54027-1.2287zm8.71031 6.69546c1.30746 0 2.25645-1.01023 2.25645-2.40309 0-1.38823-.98289-2.43452-2.28631-2.43452-1.29896 0-2.24152 1.01107-2.24152 2.40407 0 1.38725.97634 2.43354 2.27138 2.43354zm0-6.69546c2.42668 0 4.32689 1.87202 4.32689 4.26192 0 2.3979-1.91333 4.2768-4.35675 4.2768-2.41803 0-4.31239-1.86542-4.31239-4.24635 0-2.40716 1.90747-4.29237 4.34225-4.29237zm9.52633.16613c.073 0 .13172.05977.13172.13315v1.56123c0 .07324-.0587.13302-.13172.13302h-1.98798v3.75512c0 .5931.2587.85758.83819.85758.37606 0 .71248-.08124 1.06048-.25733.0403-.02006.0893-.0188.12866.006.0389.02413.0628.06735.0628.11323v1.48673c0 .04743-.0257.09204-.0668.11519-.50666.2889-1.04429.42346-1.6923.42346-1.59365 0-2.40171-.8277-2.40171-2.4602v-4.03981h-.86862c-.0728 0-.13158-.05977-.13158-.13302v-1.56123c0-.07338.0587-.13316.13158-.13316h.86862v-2.04375c0-.07338.0594-.13302.13256-.13302h1.8063c.073 0 .13187.05963.13187.13302v2.04375zm6.92618.008h3.08614c.0548 0 .1041.03396.12335.08559l2.11022 5.53706 1.92659-5.53341a.1327.1327 0 0 1 .12516-.08924h1.88068c.0438 0 .0839.02175.1087.05767.025.03648.0296.08264.0139.1236l-3.13414 8.14362c-.6501 1.68091-1.3874 2.30585-2.72139 2.30585-.71303 0-1.29015-.14858-1.92937-.4967-.0611-.0331-.086-.10803-.0568-.17187l.61229-1.35077c.0146-.03381.0437-.0595.0781-.07184.0349-.0108.073-.0079.10521.01.34271.18857.67787.28413.99616.28413.39377 0 .68219-.13021.9755-.78476l-2.5838-6.2295h-1.68673v6.23118c0 .07338-.0594.13302-.13242.13302h-1.80644c-.0728 0-.13173-.05963-.13173-.13302V19.09h-.86791c-.0728 0-.13256-.05977-.13256-.13302v-1.56923c0-.07324.0597-.13301.13256-.13301h.86791v-.38445c0-1.78657.88188-2.73142 2.5506-2.73142.68569 0 1.14365.11 1.50156.21692.0559.01726.0934.06917.0934.12754v1.53079c0 .04265-.0197.08292-.0546.10804-.0339.0251-.0774.0317-.11917.01852-.33878-.11366-.64131-.18886-1.01792-.18886-.63154 0-.91313.3293-.91313 1.06776zm-4.01531-.008c.0728 0 .13229.05977.13229.13315v7.92543c0 .07338-.0594.133-.13229.133h-1.80659c-.073 0-.13228-.05962-.13228-.133V17.3957c0-.07338.0593-.13315.13228-.13315zm-.89414-3.60864c.71539 0 1.29559.5827 1.29559 1.30236 0 .71993-.5802 1.3032-1.29559 1.3032-.71556 0-1.29645-.58327-1.29645-1.3032 0-.71965.58089-1.30236 1.29645-1.30236zm15.9005 4.39704h-.33098v.42444h.33098c.16521 0 .26386-.08124.26386-.21243 0-.13807-.0986-.21201-.26386-.21201zm.21461.60544.35958.50624h-.30321l-.32373-.46429h-.27823v.46429h-.25382v-1.34179h.59512c.30992 0 .51392.1594.51392.42795 0 .22-.12642.35442-.30963.4076zm-.28187-1.28216c-.65122 0-1.14406.52056-1.14406 1.15799 0 .637.48935 1.15068 1.13736 1.15068.65108 0 1.14435-.52027 1.14435-1.15798 0-.63715-.48964-1.15069-1.13765-1.15069zm-.007 2.4365c-.71498 0-1.27132-.57738-1.27132-1.27851 0-.70128.56359-1.2851 1.27802-1.2851.71485 0 1.27132.57723 1.27132 1.2778 0 .70113-.56317 1.2858-1.27802 1.2858z" style="fill-rule:evenodd;stroke:none;stroke-width:1"/><path fill="#fff" d="M17.39863 22.904h-3.859v-6.0265h1.173v4.9045h2.686zm2.79742 0h-1.19v-6.0265h1.19zm6.23142-4.59-1.054.323c-.0595-.3315-.3315-.85-1.0965-.85-.5695 0-.9435.3655-.9435.765 0 .3315.2125.595.6545.68l.8415.1615c1.0965.2125 1.683.9265 1.683 1.7765 0 .9265-.7735 1.8615-2.176 1.8615-1.598 0-2.3035-1.0285-2.397-1.887l1.088-.289c.051.595.4675 1.1305 1.3175 1.1305.629 0 .9775-.3145.9775-.7395 0-.3485-.2635-.6205-.731-.714l-.8415-.17c-.9605-.1955-1.581-.816-1.581-1.7255 0-1.071.9605-1.887 2.0995-1.887 1.462 0 2.023.884 2.159 1.564zm6.35042-.323h-1.904v4.913h-1.1815v-4.913h-1.904v-1.1135h4.9895zm5.38142 4.913h-3.774v-6.0265h3.774v1.105h-2.601v1.377h2.3545v1.0455h-2.3545v1.394h2.601zm7.04741 0h-1.2325l-2.737-4.2755v4.2755h-1.173v-6.0265h1.462l2.5075 3.9865v-3.9865h1.173zm5.68834-3.0175c0 1.36.952 2.006 1.8785 2.006.935 0 1.887-.646 1.887-2.006 0-1.36-.952-2.006-1.887-2.006-.9265 0-1.8785.646-1.8785 2.006zm-1.2155.0085c0-1.9465 1.462-3.145 3.094-3.145 1.6405 0 3.1025 1.1985 3.1025 3.145 0 1.938-1.462 3.1365-3.1025 3.1365-1.632 0-3.094-1.1985-3.094-3.1365zm13.15892 3.009h-1.2325l-2.737-4.2755v4.2755h-1.173v-6.0265h1.462l2.5075 3.9865v-3.9865h1.173z" style="fill-rule:evenodd;stroke:none;stroke-width:1"/></svg>
