<svg style="margin: 2px; vertical-align: top;" xmlns="http://www.w3.org/2000/svg" xmlns:xlink="http://www.w3.org/1999/xlink" width="160" height="40" viewBox="0 0 164.9 40"><linearGradient id="a" gradientUnits="userSpaceOnUse" x1="20.1" x2="20.1" y1="7.4" y2="32.6"><stop offset="0" stop-color="#f452ff"/><stop offset="1" stop-color="#832bc1"/></linearGradient><path d="M155.3 0H7.5C7 0 6.2 0 5.5.2S4.2.5 3.6.8A6.4 6.4 0 00.2 5.5l-.2 2v25c0 .7 0 1.3.2 2A6.6 6.6 0 002 38c.5.5 1 .9 1.6 1.2a6.7 6.7 0 002 .6l2 .2H157.2c.7 0 1.4 0 2-.2A6.8 6.8 0 00163 38a6.5 6.5 0 001.8-3.5l.1-2v-25l-.1-2a6.6 6.6 0 00-1.8-3.5 6.4 6.4 0 00-1.7-1.2c-.6-.3-1.2-.5-1.9-.6a13 13 0 00-2-.2h-1.9z" fill="#a6a6a6"/><path d="M8.4 39.1a40 40 0 01-.9 0L5.7 39a6 6 0 01-1.7-.6l-1.4-1a5.3 5.3 0 01-1-1.4c-.3-.5-.4-1-.5-1.7-.2-.6-.2-1.3-.2-1.8v-25c0-.5 0-1.2.2-1.8a5.7 5.7 0 011.5-3A5.6 5.6 0 014 1.5c.5-.3 1-.4 1.7-.5C6.3.9 7 .9 7.5.9h149.8c.5 0 1.2 0 1.9.2a6 6 0 011.6.5 5.5 5.5 0 011.4 1 5.6 5.6 0 011 1.4c.3.5.5 1 .6 1.7l.2 1.9v24.9c0 .6 0 1.2-.2 1.8a5.7 5.7 0 01-.5 1.7 5.5 5.5 0 01-1 1.4c-.5.4-1 .8-1.5 1a5.9 5.9 0 01-1.6.6l-1.9.1h-1.9z"/><path d="M32.2 29.2a5.3 5.3 0 01-1.6 2.1 5.3 5.3 0 01-1.8 1c-.8.2-1.8.3-3 .3H14.4a11 11 0 01-3-.3 5.3 5.3 0 01-1.8-1 5.3 5.3 0 01-1.6-2 9.9 9.9 0 01-.5-3.6V14.3c0-.9 0-2.3.5-3.5a5.3 5.3 0 011.6-2.1 5.3 5.3 0 011.8-1 11 11 0 013-.3h11.4c1.2 0 2.2.1 3 .3a5.3 5.3 0 013.4 3c.5 1.3.5 2.7.5 3.6v11.4c0 .9 0 2.3-.5 3.5z" fill="url(#a)" fill-rule="evenodd"/><g fill="#fff"><path d="M22 21.9c-.5-.4-1.1-.7-1.9-.7s-1.4.3-1.8.7a1.2 1.2 0 00-.4.7v2l.4 2.8.3 1.4c.2.5.7.9 1.5.9s1.3-.4 1.5-1l.3-1.3.3-2.9v-1.9a1.2 1.2 0 00-.3-.7zm-4-3.6a2 2 0 002.1 2 2 2 0 002-2 2 2 0 00-2-2 2 2 0 00-2 2zm2-8a8.9 8.9 0 00-2.8 17.1l.1-.1-.1-1-.2-.2a7.7 7.7 0 01-4.6-7.1 7.7 7.7 0 017.6-7.7 7.7 7.7 0 017.8 7.8c0 3.1-1.9 5.8-4.6 7l-.2.3-.1.9.1.1c3.5-1.2 6-4.5 6-8.3a8.9 8.9 0 00-9-8.9zm0 4c2.6-.1 4.9 2 4.9 4.8a4.8 4.8 0 01-1.5 3.5l-.1.2a8.5 8.5 0 010 1l.1.2a6 6 0 10-6.6 0l.2-.1v-1c0-.2-.1-.3-.2-.3-1-1-1.5-2.2-1.5-3.7a4.8 4.8 0 014.6-4.6zm26.2 13.5h-4.7l-1.1 3.4h-2l4.4-12.4H45l4.5 12.4h-2zM42 26.3h3.7L44 20.8zm17 .4c0 2.8-1.4 4.6-3.7 4.6-1.3 0-2.3-.6-2.8-1.6v4.5h-2v-12h1.8v1.4c.6-1 1.7-1.6 3-1.6 2.3 0 3.8 1.8 3.8 4.7zm-1.8 0c0-1.9-1-3-2.4-3s-2.4 1.1-2.4 3c0 1.8 1 3 2.4 3s2.4-1.2 2.4-3zm11.8 0c0 2.8-1.5 4.6-3.7 4.6-1.3 0-2.3-.6-2.9-1.6v4.5h-1.9v-12h1.8v1.4c.6-1 1.7-1.6 3-1.6 2.2 0 3.7 1.8 3.7 4.7zm-1.9 0c0-1.9-.9-3-2.3-3-1.5 0-2.4 1.1-2.4 3 0 1.8 1 3 2.4 3s2.3-1.2 2.3-3zm3.5-8h1.8v12.5h-1.9zM82 28.6c-.3 1.7-1.9 2.8-4 2.8-2.5 0-4.2-1.8-4.2-4.6s1.7-4.7 4.2-4.7 4.1 1.7 4.1 4.5v.6h-6.4v.1c0 1.6 1 2.6 2.4 2.6 1 0 1.9-.5 2.1-1.3h1.8zm-6.3-2.7h4.5c0-1.4-.9-2.3-2.2-2.3-1.3 0-2.2 1-2.3 2.3zm16.3-7c2.4 0 4 1.6 4 4 0 2.5-1.6 4.1-4 4.1h-2.7v4.3h-2V18.8zm-2.7 6.5h2.2c1.6 0 2.6-.9 2.6-2.4s-1-2.5-2.6-2.5h-2.2zm7.5 1.4c0-2.9 1.6-4.7 4.2-4.7 2.7 0 4.3 1.8 4.3 4.7 0 2.8-1.6 4.6-4.3 4.6S97 29.5 97 26.7zm6.6 0c0-2-.8-3.2-2.4-3.2s-2.4 1.2-2.4 3.2 1 3 2.4 3 2.4-1 2.4-3zm3.2 0c0-2.8 1.6-4.7 3.8-4.7a3 3 0 012.9 1.6v-4.8h1.9v12.4h-1.8v-1.6a3 3 0 01-3 1.7c-2.2 0-3.8-1.8-3.8-4.6zm2 0c0 1.8.9 3 2.3 3 1.5 0 2.4-1.2 2.4-3 0-1.9-1-3-2.4-3s-2.4 1.1-2.4 3zm14.5-1.5c-.2-1-1-1.6-2.1-1.6-1.5 0-2.4 1.2-2.4 3 0 2 1 3.2 2.4 3.2 1.1 0 1.9-.6 2-1.7h1.9c-.2 2-1.7 3.2-4 3.2-2.5 0-4.2-1.8-4.2-4.6 0-2.9 1.7-4.7 4.2-4.7 2.4 0 3.8 1.5 4 3.2h-1.8zm3 3.4c0-1.6 1.1-2.5 3.3-2.7l2.5-.1v-.7c0-1-.7-1.6-1.8-1.6-1 0-1.8.5-2 1.3h-1.7c0-1.6 1.6-2.8 3.7-2.8 2.2 0 3.6 1.2 3.6 3v6.2H132v-1.5c-.5 1-1.7 1.6-2.9 1.6-1.7 0-3-1-3-2.7zm5.8-.8V27l-2.3.1c-1 .1-1.7.6-1.7 1.4 0 .7.6 1.3 1.6 1.3 1.3 0 2.4-1 2.4-2.1z"/><use xlink:href="#C"/><path d="M146.7 20V22h1.7v1.5h-1.7v5c0 .8.4 1.1 1.1 1.1h.6V31a5 5 0 01-1 .1c-1.8 0-2.5-.7-2.5-2.4v-5.2h-1.4V22h1.4V20z"/><use xlink:href="#C" x="14.4"/><path d="M43 14.7h-3.8v-6h1v5.1H43zm1-5.9c0-.3.3-.5.6-.5s.6.2.6.5-.3.6-.6.6-.6-.3-.6-.6zm.2 1.4h.9v4.5h-1zm4-.1c1 0 1.6.4 1.7 1.2H49c0-.3-.4-.5-.9-.5s-.8.2-.8.6c0 .3.2.4.7.5l.7.2c.9.2 1.3.6 1.3 1.2 0 .9-.8 1.4-1.9 1.4s-1.7-.4-1.8-1.2h.9c0 .3.4.5 1 .5.5 0 .9-.2.9-.6 0-.3-.2-.4-.7-.5l-.7-.2c-1-.2-1.3-.6-1.3-1.3 0-.8.7-1.3 1.7-1.3zm4.1-1v1h1v.8h-1v2.3c0 .5.2.7.7.7h.3v.7a2.9 2.9 0 01-.5 0c-1 0-1.3-.3-1.3-1.1v-2.6h-.8v-.7h.8V9zm6 4.3c-.2.9-1 1.3-2 1.3-1.3 0-2-.8-2-2.3s.7-2.3 2-2.3 2 .8 2 2.2v.3h-3.2c0 .9.5 1.4 1.2 1.4.6 0 1-.2 1-.6zM55 12h2.3c0-.7-.5-1.2-1.1-1.2s-1.1.5-1.2 1.2zm4.4-1.8h.9v.7c.2-.5.7-.8 1.4-.8 1 0 1.5.6 1.5 1.6v3h-.9V12c0-.8-.3-1.1-1-1.1s-1 .4-1 1.1v2.7h-1zm7.4 2.2c0-1.4.8-2.3 2.1-2.3s2.2.9 2.2 2.3c0 1.5-.8 2.3-2.2 2.3s-2-.8-2-2.3zm3.4 0c0-1-.5-1.5-1.3-1.5s-1.2.5-1.2 1.5.5 1.6 1.2 1.6 1.3-.6 1.3-1.6zm2-2.2h1v.7c.2-.5.6-.8 1.3-.8 1 0 1.6.6 1.6 1.6v3h-1V12c0-.8-.2-1.1-.9-1.1s-1 .4-1 1.1v2.7h-1z"/></g><defs><path id="C" d="M139 22c2 0 3.4 1.1 3.5 2.7h-1.8c0-.8-.7-1.3-1.8-1.3-1 0-1.6.5-1.6 1.2 0 .5.4.9 1.3 1.1l1.6.4c1.8.4 2.5 1 2.5 2.4 0 1.7-1.6 2.8-3.8 2.8-2.1 0-3.6-1.1-3.7-2.8h1.8c.2.9.9 1.4 2 1.4s1.8-.5 1.8-1.2c0-.6-.3-.9-1.3-1.1l-1.6-.4c-1.6-.4-2.5-1.2-2.5-2.5 0-1.6 1.5-2.7 3.6-2.7z"/></defs></svg>
