<svg xmlns="http://www.w3.org/2000/svg" width="160" height="40" viewBox="0 0 164.9 40"><path fill="#a6a6a6" d="M155.3 0H7.5C7 0 6.2 0 5.5.2S4.2.5 3.6.8A6.4 6.4 0 0 0 .2 5.5l-.2 2v25c0 .7 0 1.3.2 2A6.6 6.6 0 0 0 2 38c.5.5 1 .9 1.6 1.2a6.7 6.7 0 0 0 2 .6l2 .2h149.6c.7 0 1.4 0 2-.2A6.8 6.8 0 0 0 163 38a6.5 6.5 0 0 0 1.8-3.5l.1-2v-25l-.1-2A6.6 6.6 0 0 0 163 2a6.4 6.4 0 0 0-1.7-1.2c-.6-.3-1.2-.5-1.9-.6a13 13 0 0 0-2-.2h-1.9z"/><path d="M8.4 39.1a40 40 0 0 1-.9 0L5.7 39a6 6 0 0 1-1.7-.6l-1.4-1a5.3 5.3 0 0 1-1-1.4c-.3-.5-.4-1-.5-1.7-.2-.6-.2-1.3-.2-1.8v-25c0-.5 0-1.2.2-1.8a5.7 5.7 0 0 1 1.5-3A5.6 5.6 0 0 1 4 1.5c.5-.3 1-.4 1.7-.5C6.3.9 7 .9 7.5.9h149.8c.5 0 1.2 0 1.9.2a6 6 0 0 1 1.6.5 5.5 5.5 0 0 1 1.4 1 5.6 5.6 0 0 1 1 1.4c.3.5.5 1 .6 1.7l.2 1.9v24.9c0 .6 0 1.2-.2 1.8a5.7 5.7 0 0 1-.5 1.7 5.5 5.5 0 0 1-1 1.4c-.5.4-1 .8-1.5 1a5.9 5.9 0 0 1-1.6.6l-1.9.1h-1.9z"/><path fill="#fff" d="M38.64587 11.75053c0-1.8614 1.42008-3.0874 3.16998-3.0874 1.14523 0 1.90566.51008 2.41872 1.18126l-.7421.4206c-.34815-.4564-.962-.8054-1.67662-.8054-1.27348 0-2.22632.94859-2.22632 2.29094 0 1.3334.95284 2.29989 2.22632 2.29989.67798 0 1.25517-.32217 1.54835-.59064V12.3859h-1.96063v-.78751h2.87681v2.1925c-.58636.63538-1.42925 1.05598-2.46453 1.05598-1.7499 0-3.16997-1.23496-3.16997-3.09635zm6.47093.81436c0-1.25286.92533-2.2641 2.21715-2.2641 1.32847 0 2.15303 1.01124 2.15303 2.33568v.19688h-3.4998c.0641.73382.61383 1.34235 1.50252 1.34235.46725 0 .9803-.17898 1.31014-.51009l.3848.528c-.43977.4206-1.06278.64432-1.7774.64432-1.3193 0-2.29044-.9128-2.29044-2.27304zm2.21715-1.60187c-.8887 0-1.31014.69802-1.35594 1.28865h2.70272c-.01834-.57274-.41228-1.28865-1.34678-1.28865Zm4.3637 3.8749c-.69628 0-1.0536-.3848-1.0536-1.06493v-2.65784h-.73294v-.70697h.73294V9.2269h.82456v1.18127h.89786v.70697h-.89786v2.47887c0 .30426.1466.52799.4306.52799.1924 0 .36648-.0806.44894-.17004l.21072.60854c-.17407.16108-.4306.27742-.86121.27742zm5.08103 0c-.69629 0-1.0536-.3848-1.0536-1.06493v-2.65784h-.73295v-.70697h.73294V9.2269h.82456v1.18127h.89786v.70697h-.89786v2.47887c0 .30426.1466.52799.43061.52799.1924 0 .36648-.0806.44893-.17004l.21072.60854c-.17407.16108-.4306.27742-.8612.27742zm4.52863-.10738V11.9474c0-.71593-.37563-.9307-.94367-.9307-.51306 0-.98031.30426-1.21852.62643v3.0874h-.82456V8.76156h.82456v2.25515c.29318-.349.8887-.71592 1.56667-.71592.94367 0 1.42008.46535 1.42008 1.37814v3.0516zm1.82589-2.16565c0-1.25286.92534-2.2641 2.21715-2.2641 1.32846 0 2.15303 1.01124 2.15303 2.33568v.19688h-3.49981c.0641.73382.61384 1.34235 1.50254 1.34235.46724 0 .9803-.17898 1.31013-.51009l.38479.528c-.43976.4206-1.06276.64432-1.77738.64432-1.3193 0-2.29045-.9128-2.29045-2.27304zm2.21715-1.60187c-.8887 0-1.31013.69802-1.35594 1.28865h2.70273c-.0183-.57274-.41228-1.28865-1.3468-1.28865zm-24.79713 9.76485v4.30498h2.67369c1.47308 0 2.31606-.788 2.31606-2.15664 0-1.33546-.89406-2.14834-2.36715-2.14834zm0 5.80633v4.6036h-1.90735V19.16845h4.75985c2.52894 0 4.1042 1.4267 4.1042 3.65799 0 1.61748-.88554 2.92805-2.38418 3.41745l2.75033 4.8939h-2.19686l-2.50339-4.60359zm8.1604 1.31887h1.85626c.17029 1.18615 1.32833 1.8995 2.96319 1.8995 1.55823 0 2.67369-.7797 2.67369-1.84973 0-.92901-.64713-1.50965-2.29052-1.85803l-1.33684-.27372c-2.46082-.50599-3.57628-1.61749-3.57628-3.3428 0-2.0488 1.84775-3.45891 4.46183-3.45891 2.60557 0 4.38519 1.43499 4.4448 3.52527h-1.84774c-.11922-1.20274-1.13249-1.94098-2.6226-1.94098-1.43903 0-2.49488.68017-2.49488 1.77509 0 .87095.6301 1.45158 2.2224 1.78337l1.34536.27373c2.5715.53086 3.62736 1.53453 3.62736 3.27643 0 2.25618-1.8222 3.67459-4.68321 3.67459-2.77588 0-4.62361-1.35205-4.74282-3.4838zm10.502 0h1.85625c.1703 1.18615 1.32834 1.8995 2.9632 1.8995 1.55824 0 2.67369-.7797 2.67369-1.84973 0-.92901-.64714-1.50965-2.29051-1.85803l-1.33685-.27372c-2.46082-.50599-3.57627-1.61749-3.57627-3.3428 0-2.0488 1.84774-3.45891 4.46182-3.45891 2.60558 0 4.3852 1.43499 4.4448 3.52527H66.564c-.11921-1.20274-1.1325-1.94098-2.6226-1.94098-1.43903 0-2.49487.68017-2.49487 1.77509 0 .87095.6301 1.45158 2.2224 1.78337l1.34535.27373c2.57152.53086 3.62736 1.53453 3.62736 3.27643 0 2.25618-1.8222 3.67459-4.68321 3.67459-2.77587 0-4.62361-1.35205-4.74283-3.4838zm16.41445 3.28473h-1.90735V19.16845h7.67197v1.6009h-5.76462v3.7907h5.27926v1.5677h-5.27926zm10.5616-7.44041c-1.28575 0-2.18833.9539-2.282 2.27277h4.47887c-.0426-1.33546-.91111-2.27277-2.19686-2.27277zm2.18836 4.87733h1.74555c-.25545 1.5926-1.80517 2.72898-3.85726 2.72898-2.63112 0-4.22341-1.73361-4.22341-4.48748 0-2.73726 1.61783-4.56212 4.14677-4.56212 2.48636 0 4.03608 1.70873 4.03608 4.35475v.61382h-6.3266v.10784c0 1.51793.93665 2.5216 2.40973 2.5216 1.04734 0 1.8222-.51428 2.06914-1.2774zm6.93424-4.87733c-1.28576 0-2.18834.9539-2.282 2.27277h4.47885c-.0426-1.33546-.9111-2.27277-2.19685-2.27277Zm2.18834 4.87733h1.74556c-.25544 1.5926-1.80516 2.72898-3.85727 2.72898-2.63112 0-4.2234-1.73361-4.2234-4.48748 0-2.73726 1.61783-4.56212 4.14677-4.56212 2.48636 0 4.03608 1.70873 4.03608 4.35475v.61382h-6.3266v.10784c0 1.51793.93664 2.5216 2.40973 2.5216 1.04733 0 1.8222-.51428 2.06913-1.2774zm6.55107 2.71239c-2.26497 0-3.7636-1.7585-3.7636-4.51236 0-2.75386 1.49863-4.50406 3.74657-4.50406 1.28575 0 2.30754.6304 2.80993 1.5926h.034v-4.69484h1.84779V31.1378h-1.78813v-1.48476h-.0341c-.52792.99537-1.54972 1.63407-2.8525 1.63407zm.48535-7.50677c-1.45605 0-2.36716 1.16127-2.36716 2.99441 0 1.84144.91111 2.99441 2.36716 2.99441 1.41349 0 2.35864-1.16956 2.35864-2.9944 0-1.80827-.94515-2.99442-2.35864-2.99442z" style="stroke:none;stroke-width:1.03062"/><path fill="#f5a623" d="M14.38655 29.04132c-.00008 1.84064-1.48892 3.32618-3.33194 3.32618-1.83588 0-3.32748-1.48562-3.32748-3.32618 0-1.83088 1.4916-3.33325 3.32748-3.33325 1.84309 0 3.33194 1.50237 3.33194 3.33325zM23.9 32.36742l-4.71765.00008c0-3.06803-1.19322-5.95596-3.356-8.11705-2.16503-2.16565-5.04087-3.36106-8.09923-3.36106V16.1946c8.91507 0 16.17288 7.25443 16.17288 16.17282zm8.56211.00008-4.75685-.00015c0-11.0219-8.96512-19.99198-19.97814-19.99198V7.6325c13.63765 0 24.735 11.09999 24.735 24.735z" style="fill-rule:evenodd;stroke:none;stroke-width:1.03062"/></svg>
