<svg style="margin: 2px; vertical-align: top;" xmlns="http://www.w3.org/2000/svg" width="160" height="40" viewBox="0 0 134 34"><rect fill="#fff" height="33.5" rx="8" stroke="#9aa0a6" stroke-width=".5" width="133.5" x=".3" y=".3"/><g fill-rule="nonzero"><path d="M15.6 13v8h2.8v-8z" fill="#fab908"/><g fill="#0066d9"><circle cx="7.4" cy="16.3" r="1.4"/><circle cx="7.4" cy="17.8" r="1.4"/><path d="M6 16.3h2.8v1.4H6z"/></g><g fill="#4285f4"><circle cx="26.6" cy="17.8" r="1.4"/><circle cx="26.6" cy="16.3" r="1.4"/><path d="M28 17.8h-2.8v-1.6H28z"/></g><g fill="#ea4335"><circle cx="12.1" cy="20.8" r="1.4"/><circle cx="12.1" cy="22.3" r="1.4"/><path d="M10.8 20.8h2.7v1.4h-2.8z"/><circle cx="12.1" cy="11.8" r="1.4"/><circle cx="12.1" cy="16.6" r="1.4"/><path d="M10.8 11.8h2.7v4.9h-2.8z"/></g><g fill="#34a853"><circle cx="21.9" cy="13.3" r="1.4"/><circle cx="21.9" cy="11.8" r="1.4"/><path d="M23.3 13.3h-2.8v-1.6h2.8z"/></g><g fill="#fab908"><circle cx="17" cy="8.9" r="1.4"/><circle cx="17" cy="7.4" r="1.4"/><path d="M18.4 8.9h-2.8V7.4h2.8z"/><circle cx="17" cy="26.6" r="1.4"/><circle cx="17" cy="25.1" r="1.4"/><path d="M18.4 26.6h-2.8v-1.5h2.8z"/></g><g fill="#34a853"><circle cx="21.9" cy="22.3" r="1.4"/><circle cx="21.9" cy="17.4" r="1.4"/><path d="M23.3 22.3h-2.8v-5h2.8z"/></g><g fill="#fab908"><circle cx="17" cy="13" r="1.4"/><circle cx="17" cy="21" r="1.4"/></g></g><g fill="#3c4043"><path d="M80 26.5h-1.2v-8.9h3c.8 0 1.4.3 2 .8s.8 1 .8 1.9-.3 1.3-.8 1.8-1.2.8-2 .8H80zm0-4.7h1.8c.5 0 .9-.2 1.2-.5s.4-.7.4-1-.1-.8-.4-1.1-.7-.5-1.2-.5H80zm5.5-.7c.6-.6 1.4-.9 2.3-.9s1.7.3 2.2 1 1 1.3 1 2.2-.4 1.8-1 2.4-1.3.9-2.2.9-1.7-.3-2.3-1-.8-1.3-.8-2.2.3-1.8.8-2.4zm.9 4a2 2 0 002.8 0c.4-.5.6-1 .6-1.7s-.2-1.1-.6-1.6-.9-.6-1.4-.6-1 .2-1.4.6-.6 1-.6 1.6.2 1.2.6 1.7zm8 1.6c-.8 0-1.5-.3-2-1s-1-1.3-1-2.2.4-1.7 1-2.4 1.2-.9 2-.9c.4 0 .9.1 1.2.3l.9.7V17.6h1.1v8.9h-1v-.8h-.1c-.2.3-.5.5-.9.7s-.8.3-1.2.3zm.2-1c.5 0 1-.2 1.3-.6s.6-1 .6-1.6-.2-1.3-.6-1.7-.8-.6-1.3-.6a1.8 1.8 0 00-1.4.7c-.4.4-.6.9-.6 1.6s.2 1.2.6 1.6a1.8 1.8 0 001.4.6zm7 1c-1 0-1.7-.3-2.3-1s-.9-1.3-.9-2.2.3-1.8 1-2.4 1.3-.9 2.2-.9a2.8 2.8 0 012.6 1.8l-1 .4c-.3-.8-.9-1.1-1.7-1.1-.5 0-1 .2-1.3.6s-.6 1-.6 1.6.2 1.1.6 1.5.8.7 1.3.7c.8 0 1.4-.4 1.8-1.2l1 .4a3 3 0 01-1 1.3c-.5.3-1 .5-1.7.5zm5.4 0c-.6 0-1.2-.2-1.6-.6s-.7-.8-.7-1.4c0-.7.3-1.2.8-1.6s1.1-.6 1.9-.6c.7 0 1.2.2 1.7.4v-.2c0-.4-.2-.8-.5-1s-.7-.4-1.1-.4c-.4 0-.7 0-1 .2s-.4.4-.5.6l-1-.4c.1-.4.4-.7.8-1s1-.5 1.6-.5c.8 0 1.5.2 2 .7s.7 1 .7 2v3.6h-1v-.8c-.6.7-1.2 1-2.1 1zm.2-1c.5 0 .9-.2 1.3-.6s.6-.7.6-1.2c-.4-.3-.9-.4-1.5-.4s-1 .1-1.3.3-.4.6-.4.9c0 .3.1.5.4.7s.6.3.9.3zm6.3 1a2.7 2.7 0 01-2.7-1.7l1-.5c.4.8 1 1.2 1.7 1.2.4 0 .7-.1.9-.3s.3-.3.3-.6c0-.4-.2-.6-.8-.8l-1.2-.3c-.4 0-.8-.3-1.1-.6s-.6-.6-.6-1c0-.6.3-1 .7-1.4s1-.5 1.7-.5a2.8 2.8 0 011.5.4 2 2 0 01.9 1l-1 .4c-.2-.5-.7-.8-1.4-.8-.3 0-.6 0-.8.2s-.4.4-.4.6c0 .4.3.6.8.7l1.2.3c.6.1 1 .4 1.3.7a1.6 1.6 0 01.4 1c0 .6-.2 1-.7 1.5s-1 .5-1.7.5zm5.8-.1c-.6 0-1.1-.2-1.4-.5s-.5-.8-.5-1.4v-3.2h-1.1v-1h1v-2h1.2v2h1.5v1h-1.5v3c0 .7.3 1 .8 1h.5l.4 1-.9.1zm4 .1a2.7 2.7 0 01-2.6-1.7l1-.5c.3.8.9 1.2 1.7 1.2.3 0 .6-.1.8-.3s.4-.3.4-.6c0-.4-.3-.6-.9-.8l-1.2-.3c-.4 0-.8-.3-1.1-.6s-.5-.6-.5-1c0-.6.2-1 .7-1.4s1-.5 1.7-.5a2.8 2.8 0 011.4.4 2 2 0 011 1l-1 .4c-.3-.5-.7-.8-1.4-.8-.4 0-.7 0-1 .2s-.3.4-.3.6c0 .4.3.6.9.7l1.2.3c.5.1 1 .4 1.2.7a1.6 1.6 0 01.4 1c0 .6-.2 1-.6 1.5s-1 .5-1.8.5z"/><path d="M35.3 21.6c0-2.8 2.4-5.1 5.2-5.1a4.9 4.9 0 013.5 1.4l-1 1a3.7 3.7 0 00-6.2 2.7c0 2 1.6 3.7 3.7 3.7 1.3 0 2-.5 2.6-1 .4-.4.6-1 .7-1.8h-3.3v-1.4h4.7v.9c0 1-.2 2.3-1.2 3.3-.9.9-2 1.4-3.5 1.4a5.2 5.2 0 01-5.2-5.1zM49 20.2c1.8 0 3.3 1.4 3.3 3.3s-1.5 3.3-3.3 3.3-3.3-1.4-3.3-3.3c0-2 1.5-3.3 3.3-3.3zm0 5.3c1 0 1.8-.8 1.8-2s-.8-2-1.8-2-1.9.8-1.9 2 .9 2 1.9 2zm7.2-5.3c1.8 0 3.3 1.4 3.3 3.3s-1.5 3.3-3.3 3.3-3.3-1.4-3.3-3.3c0-2 1.5-3.3 3.3-3.3zm0 5.3c1 0 1.8-.8 1.8-2s-.8-2-1.8-2-1.9.8-1.9 2 .9 2 1.9 2zm8.8-5.2h1.4v6c0 2.3-1.4 3.3-3.1 3.3-1.6 0-2.6-1-3-2l1.3-.4c.2.5.8 1.1 1.7 1.1 1 0 1.7-.6 1.7-1.9v-.5c-.4.4-1 .8-1.8.8a3.3 3.3 0 01-3.1-3.3c0-1.9 1.5-3.3 3.1-3.3.8 0 1.4.4 1.8.7zm-1.6 5c1 0 1.7-.7 1.7-1.9s-.8-2-1.7-2c-1 0-1.9.8-1.9 2 0 1.1.9 2 1.9 2zm4 1.3v-9.7h1.4v9.7zm5.4-1.1c.7 0 1.2-.4 1.6-1l1.1.8c-.4.6-1.2 1.5-2.7 1.5a3.2 3.2 0 01-3.3-3.3c0-2 1.4-3.3 3.1-3.3 1.7 0 2.6 1.4 2.8 2.1l.2.4-4.4 1.8c.3.6.8 1 1.6 1zm-.1-4c-.8 0-1.8.6-1.8 1.9l3-1.2c-.2-.5-.7-.7-1.2-.7z" fill-rule="nonzero"/></g><path d="M36.6 12.3h3v.7h-3.9V6.6h.9zm5 .7h-.8V8.2h.8zm-1-6l.2-.4h.7a.5.5 0 01.1.4v.3l-.4.1h-.4a.5.5 0 01-.1-.4zm5.3 4.7c0-.2-.1-.4-.3-.5l-.9-.3c-.5 0-.7-.2-1-.3s-.4-.3-.5-.4a1 1 0 01-.1-.6c0-.4.1-.8.4-1s.8-.4 1.3-.4c.6 0 1 .1 1.3.4s.5.6.5 1h-.8c0-.2 0-.4-.3-.5l-.7-.3c-.3 0-.5 0-.7.2a.6.6 0 00-.2.5c0 .2 0 .4.2.5l.8.3c.4 0 .8.2 1 .3l.6.4.2.7c0 .4-.2.7-.5 1s-.8.4-1.4.4c-.3 0-.7 0-1-.2l-.6-.6a1.4 1.4 0 01-.3-.8h.8a.8.8 0 00.3.7l.8.2c.4 0 .6 0 .8-.2s.3-.3.3-.5zM49 7.1v1.1h.8V9h-.8v3.4h.9v.7h-.7c-.3 0-.6 0-.8-.2s-.3-.6-.3-1v-3h-.8v-.6h.8V7.1zm4 6c-.7 0-1.2-.2-1.6-.6s-.6-1-.6-1.7v-.2c0-.5.1-.9.3-1.3s.4-.6.7-.8a1.9 1.9 0 011-.3c.7 0 1.2.2 1.5.6s.5 1 .5 1.7v.4h-3.2c0 .4.2.8.4 1a1.3 1.3 0 001 .5c.3 0 .6 0 .8-.2l.5-.4.5.4c-.4.6-1 .9-1.8.9zM53 8.8c-.3 0-.6.1-.8.4s-.4.6-.4 1H54c0-.5-.1-.8-.3-1s-.5-.4-.8-.4zm3.9-.6v.6a1.7 1.7 0 011.4-.6c1 0 1.6.5 1.6 1.7V13H59V9.9c0-.4-.1-.6-.3-.8s-.4-.3-.7-.3c-.3 0-.5.1-.7.3l-.5.5V13h-.8V8.2zm6.7 2.4c0-.5 0-1 .2-1.3s.5-.6.8-.8.7-.3 1.1-.3c.7 0 1.2.2 1.6.6s.6 1 .6 1.8c0 .5-.1 1-.3 1.3a2 2 0 01-.7.9l-1.2.3c-.6 0-1.1-.2-1.5-.7s-.6-1-.6-1.8zm.8 0c0 .6 0 1 .3 1.3s.6.5 1 .5.8-.1 1-.5.4-.7.4-1.3c0-.5-.2-1-.4-1.3a1.2 1.2 0 00-1-.5c-.4 0-.7.2-1 .5s-.3.8-.3 1.4zm5.5-2.4v.6a1.7 1.7 0 011.4-.6c1 0 1.6.5 1.6 1.7V13H72V9.9c0-.4-.1-.6-.3-.8s-.4-.3-.7-.3c-.3 0-.5.1-.7.3l-.5.5V13h-.8V8.2z" fill="#5f6368"/></svg>
