<svg xmlns="http://www.w3.org/2000/svg" width="160" height="40"><path fill="#a6a6a6" d="M150.685.594H7.277c-.485 0-1.261 0-1.94.194-.68.194-1.262.291-1.844.583A6.21 6.21 0 0 0 .194 5.93L0 7.87v24.26c0 .679 0 1.26.194 1.94a6.404 6.404 0 0 0 1.747 3.396c.485.485.97.873 1.552 1.164a6.5 6.5 0 0 0 1.94.583l1.941.194H152.53c.679 0 1.358 0 1.94-.194a6.598 6.598 0 0 0 3.687-1.747 6.307 6.307 0 0 0 1.747-3.396l.097-1.94V7.87l-.097-1.94a6.404 6.404 0 0 0-1.747-3.396 6.21 6.21 0 0 0-1.649-1.164 5.854 5.854 0 0 0-1.844-.583 12.614 12.614 0 0 0-1.94-.194h-1.844z"/><path d="M8.15 38.532a38.811 38.811 0 0 1-.873 0l-1.746-.097a5.822 5.822 0 0 1-1.65-.582l-1.358-.97a5.143 5.143 0 0 1-.97-1.358c-.292-.486-.389-.97-.486-1.65-.194-.582-.194-1.261-.194-1.746V7.87c0-.485 0-1.164.194-1.746a5.53 5.53 0 0 1 1.456-2.91A5.434 5.434 0 0 1 3.88 2.05c.485-.291.97-.388 1.65-.485.582-.097 1.261-.097 1.746-.097h145.349c.485 0 1.164 0 1.843.194a5.822 5.822 0 0 1 1.553.485 5.337 5.337 0 0 1 1.358.97 5.434 5.434 0 0 1 .97 1.358c.292.486.486.97.583 1.65l.194 1.843v24.16c0 .583 0 1.165-.194 1.747a5.53 5.53 0 0 1-.485 1.65 5.337 5.337 0 0 1-.97 1.358c-.486.388-.971.776-1.456.97a5.725 5.725 0 0 1-1.553.582l-1.843.097h-1.844z"/><path fill="red" d="M20.997 33a13 13 0 1 0 .006-26 13 13 0 0 0-.006 26Z"/><path fill="#fff" d="M20.997 13.156a6.846 6.846 0 1 1 .018 13.693 6.846 6.846 0 0 1-.018-13.693zm0-1.047a7.894 7.894 0 1 0 0 15.788 7.894 7.894 0 0 0 0-15.788Z"/><path fill="#fff" d="M18.488 23.842 25.136 20l-6.648-3.839z"/><path fill="#fff" d="M77.964 10.89v4.155h-.903V9.76h.854zm-.215 1.313-.376-.015c.003-.361.057-.695.161-1a2.5 2.5 0 0 1 .44-.806 1.959 1.959 0 0 1 1.548-.718c.26 0 .494.036.703.107.208.069.385.18.532.332.15.153.264.352.342.596.078.24.117.535.117.884v3.462h-.908v-3.472c0-.277-.04-.498-.122-.664a.75.75 0 0 0-.357-.366 1.28 1.28 0 0 0-.576-.117c-.224 0-.43.047-.615.141-.182.095-.34.225-.474.39-.13.167-.232.357-.307.572a2.088 2.088 0 0 0-.108.674zm-6.63.259v-.113c0-.38.055-.734.165-1.06.111-.328.27-.613.479-.854.208-.244.46-.433.757-.566.296-.137.628-.205.996-.205.37 0 .704.068 1 .205.3.133.554.322.762.566.212.241.373.526.484.855.11.325.166.679.166 1.06v.112c0 .38-.055.734-.166 1.06-.11.325-.272.61-.483.854-.209.24-.461.43-.757.566-.293.134-.625.2-.996.2a2.41 2.41 0 0 1-1.001-.2 2.264 2.264 0 0 1-.762-.566 2.581 2.581 0 0 1-.479-.855 3.274 3.274 0 0 1-.166-1.06zm.903-.113v.113c0 .263.03.512.092.747.062.23.155.436.279.615.127.18.285.32.473.425.19.1.409.151.66.151.247 0 .463-.05.649-.151.189-.104.345-.246.469-.425.123-.179.216-.384.278-.615a2.78 2.78 0 0 0 .098-.747v-.113c0-.26-.033-.506-.098-.737a1.896 1.896 0 0 0-.283-.62 1.346 1.346 0 0 0-.469-.43 1.315 1.315 0 0 0-.654-.156c-.248 0-.466.052-.655.156a1.405 1.405 0 0 0-.468.43 1.961 1.961 0 0 0-.279.62 2.844 2.844 0 0 0-.092.737zm-7.769-1.46v4.156h-.903V9.76h.854zm-.215 1.314-.376-.015c.004-.361.057-.695.161-1a2.5 2.5 0 0 1 .44-.806 1.959 1.959 0 0 1 1.548-.718c.26 0 .494.036.703.107.208.069.386.18.532.332.15.153.264.352.342.596.078.24.117.535.117.884v3.462h-.908v-3.472c0-.277-.04-.498-.122-.664a.75.75 0 0 0-.357-.366 1.28 1.28 0 0 0-.576-.117c-.224 0-.43.047-.615.141a1.47 1.47 0 0 0-.474.39c-.13.167-.232.357-.307.572a2.088 2.088 0 0 0-.108.674zm-3.799 2.94a2.6 2.6 0 0 1-1-.186 2.269 2.269 0 0 1-.767-.532 2.367 2.367 0 0 1-.488-.811 2.971 2.971 0 0 1-.171-1.025v-.205c0-.43.063-.813.19-1.148.127-.338.3-.625.518-.86.218-.234.465-.411.742-.532.277-.12.563-.18.86-.18.377 0 .702.065.976.195.277.13.503.313.679.547.175.231.305.505.39.82.085.313.127.655.127 1.026v.405H58.35v-.737h3.042v-.069a2.256 2.256 0 0 0-.147-.683 1.229 1.229 0 0 0-.39-.547c-.18-.143-.424-.215-.733-.215a1.23 1.23 0 0 0-1.01.513c-.124.169-.22.376-.289.62a3.141 3.141 0 0 0-.102.845v.205c0 .25.034.486.102.708.072.218.175.41.308.576.137.166.301.296.493.39.195.095.417.142.664.142.32 0 .59-.065.81-.195.222-.13.416-.305.582-.523l.547.435a2.528 2.528 0 0 1-.435.493 2.074 2.074 0 0 1-.65.38 2.513 2.513 0 0 1-.903.147zM56.988 9.76v.694H54.13V9.76zm-1.89-1.284H56v5.259c0 .18.028.314.083.405a.397.397 0 0 0 .215.181.89.89 0 0 0 .283.044c.075 0 .153-.007.235-.02a5.72 5.72 0 0 0 .19-.039l.005.738a2.103 2.103 0 0 1-.283.063 2.153 2.153 0 0 1-.415.034c-.222 0-.425-.044-.61-.131a.982.982 0 0 1-.445-.44c-.108-.208-.161-.488-.161-.84zm-2.412 5.166a.76.76 0 0 0-.088-.361c-.055-.114-.171-.216-.347-.308-.172-.094-.433-.175-.781-.244a6.2 6.2 0 0 1-.796-.22 2.414 2.414 0 0 1-.6-.307 1.29 1.29 0 0 1-.377-.425 1.184 1.184 0 0 1-.131-.571c0-.209.045-.405.136-.591a1.59 1.59 0 0 1 .396-.493c.172-.143.379-.256.62-.337.24-.081.51-.122.806-.122.423 0 .784.075 1.084.224.3.15.529.35.688.601.16.247.24.522.24.825h-.904a.775.775 0 0 0-.132-.425.973.973 0 0 0-.376-.346 1.213 1.213 0 0 0-.6-.137c-.251 0-.454.04-.61.117a.784.784 0 0 0-.338.288.726.726 0 0 0-.053.635.58.58 0 0 0 .185.21c.088.062.212.12.371.176.16.055.363.11.61.166.434.097.79.215 1.07.351.28.137.488.305.625.503.137.199.205.44.205.723a1.408 1.408 0 0 1-.562 1.133 2.063 2.063 0 0 1-.644.322 2.878 2.878 0 0 1-.835.112c-.466 0-.86-.083-1.182-.249a1.828 1.828 0 0 1-.732-.644 1.542 1.542 0 0 1-.25-.835h.91c.012.247.084.444.214.59.13.144.29.246.478.308.19.059.376.088.562.088.247 0 .454-.032.62-.098a.864.864 0 0 0 .386-.268.622.622 0 0 0 .132-.39zM48.159 9.76v5.284h-.908V9.76zm-.976-1.4c0-.147.044-.271.132-.372.09-.1.224-.151.4-.151.172 0 .304.05.395.151a.521.521 0 0 1 .142.371.51.51 0 0 1-.142.361c-.09.098-.223.147-.395.147-.176 0-.31-.049-.4-.147a.532.532 0 0 1-.132-.36zm-.947 5.917v.767H42.68v-.767zm-3.37-6.343v7.11h-.942v-7.11zm96.327 23.008c-1.13 0-2-.347-2.608-1.04-.597-.693-.896-1.664-.896-2.912 0-1.216.294-2.181.88-2.896.587-.715 1.45-1.072 2.592-1.072.459 0 .88.064 1.264.192.395.117.79.32 1.184.608l-.736 1.088a3.068 3.068 0 0 0-.8-.448 2.265 2.265 0 0 0-.832-.144c-.672 0-1.184.245-1.536.736-.352.49-.528 1.136-.528 1.936 0 .853.17 1.51.512 1.968.352.459.87.688 1.552.688.278 0 .57-.048.88-.144.31-.096.603-.256.88-.48l.768.944a3.257 3.257 0 0 1-1.168.752c-.405.15-.874.224-1.408.224zm-5.011-.16c-.715 0-1.227-.165-1.536-.496-.31-.341-.464-.896-.464-1.664v-5.36h1.488v5.232c0 .33.042.565.128.704.085.128.234.192.448.192h.288v1.392zm-1.248-9.088c-.288 0-.523-.09-.704-.272-.182-.181-.272-.416-.272-.704s.09-.523.272-.704a.986.986 0 0 1 .704-.272c.277 0 .506.096.688.288a.887.887 0 0 1 .288.672c0 .288-.091.528-.272.72a.954.954 0 0 1-.704.272zm-5.586 9.248a4.582 4.582 0 0 1-1.456-.224 5.176 5.176 0 0 1-1.264-.624l.512-1.184c.406.256.779.443 1.12.56.352.107.699.16 1.04.16.47 0 .827-.08 1.072-.24.246-.17.368-.4.368-.688a.828.828 0 0 0-.416-.752c-.277-.181-.645-.357-1.104-.528-.693-.256-1.248-.544-1.664-.864-.405-.33-.613-.8-.624-1.408-.01-.672.224-1.19.704-1.552.49-.373 1.136-.56 1.936-.56.843 0 1.616.23 2.32.688l-.512 1.152a4.541 4.541 0 0 0-.896-.4 2.72 2.72 0 0 0-.896-.144c-.384 0-.688.07-.912.208-.224.128-.336.33-.336.608 0 .288.134.507.4.656.278.15.688.33 1.232.544.672.256 1.21.555 1.616.896.406.33.608.81.608 1.44 0 .704-.261 1.259-.784 1.664-.512.395-1.2.592-2.064.592zm-8.09-.016c-.874 0-1.551-.261-2.031-.784-.48-.523-.72-1.296-.72-2.32v-4.56h1.488v4.24c0 .363.032.699.096 1.008.074.31.218.56.432.752.224.192.554.288.992.288.554 0 .98-.181 1.28-.544.309-.363.464-.912.464-1.648v-4.096h1.488v7.44h-1.344v-.832a2.518 2.518 0 0 1-.944.8c-.363.17-.763.256-1.2.256zm-15.918-11.12h1.84l3.456 8.224 3.568-8.224h1.728v10.896h-1.552V22.67l-3.216 7.584h-1.008l-3.248-7.552v8h-1.568zm-9.17 11.12c-1.098 0-1.957-.341-2.575-1.024-.608-.693-.912-1.643-.912-2.848 0-.779.128-1.467.384-2.064.256-.608.629-1.083 1.12-1.424.49-.352 1.098-.528 1.824-.528 1.056 0 1.85.341 2.384 1.024.533.672.8 1.584.8 2.736 0 .128-.011.245-.032.352-.011.107-.022.23-.032.368h-4.992c.053.757.272 1.307.656 1.648.394.341.917.512 1.568.512.34 0 .645-.048.912-.144.266-.107.554-.288.864-.544l.752.96a4.228 4.228 0 0 1-1.264.752c-.427.15-.912.224-1.456.224zm-.143-6.64c-.587 0-1.035.197-1.344.592-.31.395-.491.923-.544 1.584h3.728c-.022-.683-.182-1.216-.48-1.6-.288-.384-.742-.576-1.36-.576zm-7.972 6.64c-.95 0-1.686-.341-2.208-1.024v.8h-1.408V19.806h1.488v4.192c.522-.64 1.232-.96 2.128-.96.981 0 1.754.347 2.32 1.04.576.683.864 1.648.864 2.896 0 1.259-.288 2.235-.864 2.928-.566.683-1.339 1.024-2.32 1.024zm-.224-1.296c.608 0 1.077-.224 1.408-.672.34-.459.512-1.12.512-1.984 0-.821-.171-1.467-.512-1.936-.331-.47-.8-.704-1.408-.704-.608 0-1.078.235-1.408.704-.331.47-.496 1.115-.496 1.936 0 .853.165 1.51.496 1.968.33.459.8.688 1.408.688zm-9.338 1.296c-.875 0-1.552-.261-2.032-.784s-.72-1.296-.72-2.32v-4.56h1.488v4.24c0 .363.032.699.096 1.008.075.31.219.56.432.752.224.192.555.288.992.288.555 0 .981-.181 1.28-.544.31-.363.464-.912.464-1.648v-4.096h1.488v7.44h-1.344v-.832c-.256.352-.57.619-.944.8-.363.17-.763.256-1.2.256zm-7.927-.224V21.23h-3.424v-1.424h8.672l-.464 1.424h-3.184v9.472zm-7.242.224c-.875 0-1.552-.261-2.032-.784s-.72-1.296-.72-2.32v-4.56h1.488v4.24c0 .363.032.699.096 1.008.075.31.219.56.432.752.224.192.555.288.992.288.555 0 .981-.181 1.28-.544.31-.363.464-.912.464-1.648v-4.096h1.488v7.44h-1.344v-.832c-.256.352-.57.619-.944.8-.363.17-.763.256-1.2.256zm-7.935.016c-1.1 0-1.947-.347-2.544-1.04-.598-.693-.896-1.67-.896-2.928 0-1.248.298-2.219.896-2.912.597-.693 1.445-1.04 2.544-1.04 1.098 0 1.946.347 2.544 1.04.597.693.896 1.664.896 2.912 0 1.259-.3 2.235-.896 2.928-.598.693-1.446 1.04-2.544 1.04zm0-1.296c.629 0 1.109-.23 1.44-.688.34-.47.512-1.13.512-1.984 0-.832-.171-1.483-.512-1.952-.331-.47-.811-.704-1.44-.704-.62 0-1.1.235-1.44.704-.342.47-.512 1.12-.512 1.952 0 .853.17 1.515.512 1.984.34.459.82.688 1.44.688zm-8.482 1.056V26.59l-3.68-6.784h1.664l2.816 5.28 2.88-5.28h1.6l-3.68 6.784-.016 4.112z"/></svg>
