<svg xmlns="http://www.w3.org/2000/svg" width="160" height="40"><path fill="#a6a6a6" d="M150.685.594H7.277c-.485 0-1.261 0-1.94.194-.68.194-1.262.291-1.844.583A6.21 6.21 0 0 0 .194 5.93L0 7.87V32.13c0 .679 0 1.26.194 1.94a6.404 6.404 0 0 0 1.747 3.396c.485.485.97.873 1.552 1.164a6.5 6.5 0 0 0 1.94.583l1.941.194H152.53c.679 0 1.358 0 1.94-.194a6.598 6.598 0 0 0 3.687-1.747 6.307 6.307 0 0 0 1.747-3.396l.097-1.94V7.87l-.097-1.94a6.404 6.404 0 0 0-1.747-3.396 6.21 6.21 0 0 0-1.649-1.164 5.854 5.854 0 0 0-1.844-.583 12.614 12.614 0 0 0-1.94-.194h-1.844z"/><path d="M8.15 38.532a38.811 38.811 0 0 1-.873 0l-1.746-.097a5.822 5.822 0 0 1-1.65-.582l-1.358-.97a5.143 5.143 0 0 1-.97-1.358c-.292-.486-.389-.97-.486-1.65-.194-.582-.194-1.261-.194-1.746V7.87c0-.485 0-1.164.194-1.746a5.53 5.53 0 0 1 1.456-2.91A5.434 5.434 0 0 1 3.88 2.05c.485-.291.97-.388 1.65-.485.582-.097 1.261-.097 1.746-.097h145.349c.485 0 1.164 0 1.843.194a5.822 5.822 0 0 1 1.553.485 5.337 5.337 0 0 1 1.358.97 5.434 5.434 0 0 1 .97 1.358c.292.486.486.97.583 1.65l.194 1.843v24.16c0 .583 0 1.165-.194 1.747a5.53 5.53 0 0 1-.485 1.65 5.337 5.337 0 0 1-.97 1.358c-.486.388-.971.776-1.456.97a5.725 5.725 0 0 1-1.553.582l-1.843.097h-1.844z"/><path fill="#f43e37" d="M34 20c0 7.18-5.82 13-13 13S8 27.18 8 20 13.82 7 21 7s13 5.82 13 13"/><path fill="#fff" d="M0 10C0 4.477 4.477 0 10 0s10 4.477 10 10h-2.5a7.5 7.5 0 1 0-7.5 7.5V20C4.477 20 0 15.523 0 10Zm10 6a6 6 0 1 1 6-6h-2.182A3.818 3.818 0 1 0 10 13.818z" transform="translate(10.889 9.889)"/><path fill="#fff" d="M122.806 31.658a6.895 6.895 0 0 1-3.286-.833l.499-2.029c.947.521 1.893.833 2.754.833.636 0 .98-.277.98-.658 0-.382-.207-.555-1.411-1.04-1.669-.676-2.495-1.319-2.495-2.828 0-1.664 1.136-2.74 3.131-2.74 1.015 0 1.946.244 2.789.659l-.5 2.03c-.774-.4-1.566-.66-2.289-.66-.533 0-.825.226-.825.59 0 .346.189.52 1.376 1.006 1.875.745 2.529 1.439 2.529 2.86 0 1.874-1.306 2.81-3.252 2.81m-8.755-2.843v-4.232h-.964V22.52h.964v-2.357h2.478v2.357h1.892v2.064h-1.892v3.866c0 .747.395 1.059 1.066 1.059.292 0 .551-.052.826-.121v2.046c-.379.12-.912.19-1.531.19-1.893 0-2.84-.78-2.84-2.808m-5.02 2.843a6.895 6.895 0 0 1-3.287-.833l.499-2.029c.947.521 1.893.833 2.754.833.637 0 .98-.277.98-.658 0-.382-.207-.555-1.411-1.04-1.668-.676-2.495-1.319-2.495-2.828 0-1.664 1.136-2.74 3.131-2.74 1.015 0 1.946.244 2.789.659l-.5 2.03c-.774-.4-1.565-.66-2.289-.66-.533 0-.824.226-.824.59 0 .346.188.52 1.376 1.006 1.875.745 2.528 1.439 2.528 2.86 0 1.874-1.306 2.81-3.252 2.81m-6.914-2.064v-2.133a3.903 3.903 0 0 0-.808-.068c-.516 0-.808.103-1.015.293-.189.21-.293.522-.293.972 0 .902.395 1.267 1.084 1.267.344 0 .706-.139 1.032-.33m-2.065 2.028c-1.393 0-2.373-.901-2.373-2.843 0-.868.24-1.596.705-2.047.499-.52 1.24-.78 2.357-.78.482 0 .964.07 1.376.156v-.504c0-.762-.342-1.178-1.273-1.178-.722 0-1.497.209-2.185.502l-.464-1.906c.895-.364 1.943-.642 3.097-.642 2.254 0 3.269.971 3.269 3.035v4.49l.19 1.596h-2.168l-.31-.78c-.654.572-1.29.901-2.22.901m-5.811.017c-3.133 0-5.094-2.01-5.094-6.19 0-4.023 2.014-6.225 5.111-6.225 1.032 0 1.892.207 2.563.468l-.412 2.463c-.533-.226-1.153-.434-1.893-.434-1.652 0-2.633 1.319-2.633 3.693 0 2.446.93 3.728 2.685 3.728a4.65 4.65 0 0 0 1.857-.415l.431 2.393a6.837 6.837 0 0 1-2.615.52m-13.005-2.826v-4.232h-.963V22.52h.963v-2.357h2.478v2.357h1.892v2.064h-1.892v3.866c0 .747.395 1.059 1.066 1.059.292 0 .552-.052.826-.121v2.046c-.379.12-.912.19-1.531.19-1.893 0-2.84-.78-2.84-2.808m-4.075-2.412c-.051-1.351-.447-2.149-1.204-2.149-.775 0-1.17.832-1.222 2.15zm-4.749.643c0-3.088 1.566-4.717 3.545-4.717 2.1 0 3.511 1.613 3.511 4.769v.815h-4.733c.086 1.23.757 1.838 1.859 1.838.653 0 1.429-.21 2.134-.537l.447 1.769a6.458 6.458 0 0 1-2.84.657c-2.185 0-3.923-1.161-3.923-4.594zm-.066-4.526-2.426 4.3 2.495 4.682h-2.77l-2.065-4.3v4.3h-2.494V19h2.494v7.404l2.03-3.884zm-10.527 9.12c-2.392 0-3.803-1.682-3.803-4.612 0-2.86 1.446-4.664 3.94-4.664.791 0 1.394.156 1.98.381l-.38 2.185c-.413-.19-.895-.348-1.393-.348-1.153 0-1.755 1.007-1.755 2.412 0 1.525.602 2.427 1.79 2.427.447 0 .912-.14 1.41-.33l.38 2.099c-.603.26-1.394.45-2.17.45m-8.375-7.178c-.775 0-1.256.832-1.256 2.532 0 1.716.5 2.565 1.29 2.565.775 0 1.273-.85 1.273-2.548 0-1.717-.516-2.549-1.307-2.549m.017 7.213c-2.03 0-3.648-1.577-3.648-4.648 0-3.102 1.635-4.698 3.666-4.698 2.012 0 3.647 1.596 3.647 4.665 0 3.086-1.635 4.681-3.665 4.681m-8.686-5.843c1.274 0 1.91-.694 1.91-2.168 0-1.509-.636-2.08-1.876-2.08h-.619v4.248zm-3.235 5.67V19.363h3.27c2.943 0 4.525 1.404 4.525 4.214 0 3.137-1.876 4.44-4.456 4.44h-.672V31.5z"/><path fill="#fff" d="M46.23 15h-4.46V8h1.34v5.79h3.12zm2.24-6.12h-1.33V7.86h1.33zM48.44 15h-1.27V9.77h1.27zm5.18-1.51c0 1.06-.79 1.61-2.03 1.61-.79 0-1.59-.2-2.21-.52l.33-1.05c.57.31 1.25.52 1.89.52.52 0 .8-.2.8-.5 0-.28-.18-.43-1.03-.68-1.17-.32-1.75-.69-1.75-1.62 0-.94.71-1.57 1.94-1.57.68 0 1.31.15 1.86.42l-.32 1.03c-.5-.24-1.05-.41-1.57-.41-.45 0-.69.19-.69.46 0 .28.21.41 1.01.66 1.34.38 1.77.79 1.77 1.65zm3.01 1.59c-1.09 0-1.68-.48-1.68-1.65v-2.61h-.76V9.77h.76V8.33h1.25v1.44h1.44v1.05H56.2v2.41c0 .54.29.78.77.78.23 0 .45-.04.68-.12v1.05c-.28.08-.62.14-1.02.14zm4.24.02c-1.46 0-2.5-.87-2.5-2.69 0-1.7.99-2.76 2.31-2.76 1.4 0 2.27 1.08 2.27 2.81v.46h-3.33c.11.7.57 1.14 1.32 1.14.46 0 1-.15 1.47-.41l.34.95c-.57.32-1.24.5-1.88.5zm-1.27-3.17h2.12c-.07-.76-.44-1.25-1.05-1.25-.6 0-.99.5-1.07 1.25zm5.6-.73V15h-1.26V9.77h.98l.21.52c.46-.34.97-.61 1.65-.61 1.03 0 1.59.59 1.59 1.72V15H67.1v-3.31c0-.58-.27-.89-.81-.89-.37 0-.78.18-1.09.4zm10.71 1.18c0 1.7-1.03 2.74-2.39 2.74s-2.38-1.03-2.38-2.72c0-1.71 1.03-2.75 2.39-2.75s2.38 1.03 2.38 2.73zm-1.27.01c0-1.03-.45-1.69-1.12-1.69-.67 0-1.11.66-1.11 1.68 0 1.03.45 1.69 1.12 1.69.67 0 1.11-.65 1.11-1.68zm3.56-1.19V15h-1.26V9.77h.98l.21.52c.46-.34.97-.61 1.65-.61 1.03 0 1.59.59 1.59 1.72V15H80.1v-3.31c0-.58-.27-.89-.81-.89-.37 0-.78.18-1.09.4z"/></svg>
